<?xml version="1.0" encoding="UTF-8"?>
<svg xmlns="http://www.w3.org/2000/svg" xmlns:xlink="http://www.w3.org/1999/xlink" width="375pt" height="374.999991pt" viewBox="0 0 375 374.999991" version="1.2">
<defs>
<clipPath id="clip1">
  <path d="M 22.753906 22.753906 L 352.003906 22.753906 L 352.003906 352.003906 L 22.753906 352.003906 Z M 22.753906 22.753906 "/>
</clipPath>
</defs>
<g id="surface1">
<g clip-path="url(#clip1)" clip-rule="nonzero">
<path style=" stroke:none;fill-rule:nonzero;fill:rgb(100%,100%,100%);fill-opacity:1;" d="M 187.378906 22.753906 C 184.683594 22.753906 181.992188 22.820312 179.300781 22.953125 C 176.609375 23.085938 173.925781 23.28125 171.242188 23.546875 C 168.5625 23.8125 165.890625 24.140625 163.222656 24.535156 C 160.558594 24.929688 157.90625 25.390625 155.261719 25.917969 C 152.621094 26.441406 149.992188 27.035156 147.378906 27.6875 C 144.765625 28.34375 142.167969 29.0625 139.589844 29.84375 C 137.011719 30.625 134.457031 31.46875 131.917969 32.378906 C 129.382812 33.285156 126.871094 34.253906 124.378906 35.285156 C 121.890625 36.316406 119.429688 37.40625 116.992188 38.558594 C 114.558594 39.710938 112.152344 40.921875 109.777344 42.191406 C 107.398438 43.464844 105.054688 44.789062 102.746094 46.175781 C 100.433594 47.5625 98.160156 49 95.917969 50.5 C 93.679688 51.996094 91.476562 53.546875 89.3125 55.152344 C 87.148438 56.757812 85.023438 58.414062 82.941406 60.121094 C 80.859375 61.832031 78.820312 63.589844 76.824219 65.398438 C 74.828125 67.210938 72.875 69.066406 70.972656 70.972656 C 69.066406 72.875 67.210938 74.828125 65.398438 76.824219 C 63.589844 78.820312 61.832031 80.859375 60.121094 82.941406 C 58.414062 85.023438 56.757812 87.148438 55.152344 89.3125 C 53.546875 91.476562 51.996094 93.679688 50.5 95.917969 C 49 98.160156 47.5625 100.433594 46.175781 102.746094 C 44.789062 105.054688 43.464844 107.398438 42.191406 109.777344 C 40.921875 112.152344 39.710938 114.558594 38.558594 116.992188 C 37.40625 119.429688 36.316406 121.890625 35.285156 124.378906 C 34.253906 126.871094 33.285156 129.382812 32.378906 131.917969 C 31.46875 134.457031 30.625 137.011719 29.84375 139.589844 C 29.0625 142.167969 28.34375 144.765625 27.6875 147.378906 C 27.035156 149.992188 26.441406 152.621094 25.917969 155.261719 C 25.390625 157.90625 24.929688 160.558594 24.535156 163.222656 C 24.140625 165.890625 23.8125 168.5625 23.546875 171.242188 C 23.28125 173.925781 23.085938 176.609375 22.953125 179.300781 C 22.820312 181.992188 22.753906 184.683594 22.753906 187.378906 C 22.753906 190.074219 22.820312 192.765625 22.953125 195.457031 C 23.085938 198.148438 23.28125 200.835938 23.546875 203.515625 C 23.8125 206.195312 24.140625 208.871094 24.535156 211.535156 C 24.929688 214.199219 25.390625 216.855469 25.917969 219.496094 C 26.441406 222.136719 27.035156 224.765625 27.6875 227.378906 C 28.34375 229.992188 29.0625 232.589844 29.84375 235.167969 C 30.625 237.746094 31.46875 240.304688 32.378906 242.839844 C 33.285156 245.375 34.253906 247.890625 35.285156 250.378906 C 36.316406 252.867188 37.40625 255.328125 38.558594 257.765625 C 39.710938 260.199219 40.921875 262.605469 42.191406 264.984375 C 43.464844 267.359375 44.789062 269.703125 46.175781 272.011719 C 47.5625 274.324219 49 276.601562 50.5 278.839844 C 51.996094 281.082031 53.546875 283.28125 55.152344 285.445312 C 56.757812 287.609375 58.414062 289.734375 60.121094 291.816406 C 61.832031 293.898438 63.589844 295.9375 65.398438 297.933594 C 67.210938 299.929688 69.066406 301.882812 70.972656 303.785156 C 72.875 305.691406 74.828125 307.550781 76.824219 309.359375 C 78.820312 311.167969 80.859375 312.925781 82.941406 314.636719 C 85.023438 316.34375 87.148438 318.003906 89.3125 319.605469 C 91.476562 321.210938 93.679688 322.761719 95.917969 324.261719 C 98.160156 325.757812 100.433594 327.199219 102.746094 328.582031 C 105.054688 329.96875 107.398438 331.296875 109.777344 332.566406 C 112.152344 333.835938 114.558594 335.046875 116.992188 336.199219 C 119.429688 337.351562 121.890625 338.441406 124.378906 339.472656 C 126.871094 340.503906 129.382812 341.472656 131.917969 342.382812 C 134.457031 343.289062 137.011719 344.132812 139.589844 344.914062 C 142.167969 345.699219 144.765625 346.414062 147.378906 347.070312 C 149.992188 347.726562 152.621094 348.316406 155.261719 348.839844 C 157.90625 349.367188 160.558594 349.828125 163.222656 350.222656 C 165.890625 350.617188 168.5625 350.949219 171.242188 351.210938 C 173.925781 351.476562 176.609375 351.671875 179.300781 351.804688 C 181.992188 351.9375 184.683594 352.003906 187.378906 352.003906 C 190.074219 352.003906 192.765625 351.9375 195.457031 351.804688 C 198.148438 351.671875 200.835938 351.476562 203.515625 351.210938 C 206.195312 350.949219 208.871094 350.617188 211.535156 350.222656 C 214.199219 349.828125 216.855469 349.367188 219.496094 348.839844 C 222.136719 348.316406 224.765625 347.726562 227.378906 347.070312 C 229.992188 346.414062 232.589844 345.699219 235.167969 344.914062 C 237.746094 344.132812 240.304688 343.289062 242.839844 342.382812 C 245.375 341.472656 247.890625 340.503906 250.378906 339.472656 C 252.867188 338.441406 255.328125 337.351562 257.765625 336.199219 C 260.199219 335.046875 262.605469 333.835938 264.984375 332.566406 C 267.359375 331.296875 269.703125 329.96875 272.011719 328.582031 C 274.324219 327.199219 276.601562 325.757812 278.839844 324.261719 C 281.082031 322.761719 283.28125 321.210938 285.445312 319.605469 C 287.609375 318.003906 289.734375 316.34375 291.816406 314.636719 C 293.898438 312.925781 295.9375 311.167969 297.933594 309.359375 C 299.929688 307.550781 301.882812 305.691406 303.785156 303.785156 C 305.691406 301.882812 307.550781 299.929688 309.359375 297.933594 C 311.167969 295.9375 312.925781 293.898438 314.636719 291.816406 C 316.34375 289.734375 318.003906 287.609375 319.605469 285.445312 C 321.210938 283.28125 322.761719 281.082031 324.261719 278.839844 C 325.757812 276.601562 327.199219 274.324219 328.582031 272.011719 C 329.96875 269.703125 331.296875 267.359375 332.566406 264.984375 C 333.835938 262.605469 335.046875 260.199219 336.199219 257.765625 C 337.351562 255.328125 338.441406 252.867188 339.472656 250.378906 C 340.503906 247.890625 341.472656 245.375 342.382812 242.839844 C 343.289062 240.304688 344.132812 237.746094 344.914062 235.167969 C 345.699219 232.589844 346.414062 229.992188 347.070312 227.378906 C 347.726562 224.765625 348.316406 222.136719 348.839844 219.496094 C 349.367188 216.855469 349.828125 214.199219 350.222656 211.535156 C 350.617188 208.871094 350.949219 206.195312 351.210938 203.515625 C 351.476562 200.835938 351.671875 198.148438 351.804688 195.457031 C 351.9375 192.765625 352.003906 190.074219 352.003906 187.378906 C 352.003906 184.683594 351.9375 181.992188 351.804688 179.300781 C 351.671875 176.609375 351.476562 173.925781 351.210938 171.242188 C 350.949219 168.5625 350.617188 165.890625 350.222656 163.222656 C 349.828125 160.558594 349.367188 157.90625 348.839844 155.261719 C 348.316406 152.621094 347.726562 149.992188 347.070312 147.378906 C 346.414062 144.765625 345.699219 142.167969 344.914062 139.589844 C 344.132812 137.011719 343.289062 134.457031 342.382812 131.917969 C 341.472656 129.382812 340.503906 126.871094 339.472656 124.378906 C 338.441406 121.890625 337.351562 119.429688 336.199219 116.992188 C 335.046875 114.558594 333.835938 112.152344 332.566406 109.777344 C 331.296875 107.398438 329.96875 105.054688 328.582031 102.746094 C 327.199219 100.433594 325.757812 98.160156 324.261719 95.917969 C 322.761719 93.679688 321.210938 91.476562 319.605469 89.3125 C 318.003906 87.148438 316.34375 85.023438 314.636719 82.941406 C 312.925781 80.859375 311.167969 78.820312 309.359375 76.824219 C 307.550781 74.828125 305.691406 72.875 303.785156 70.972656 C 301.882812 69.066406 299.929688 67.210938 297.933594 65.398438 C 295.9375 63.589844 293.898438 61.832031 291.816406 60.121094 C 289.734375 58.414062 287.609375 56.757812 285.445312 55.152344 C 283.28125 53.546875 281.082031 51.996094 278.839844 50.5 C 276.601562 49 274.324219 47.5625 272.011719 46.175781 C 269.703125 44.789062 267.359375 43.464844 264.984375 42.191406 C 262.605469 40.921875 260.199219 39.710938 257.765625 38.558594 C 255.328125 37.40625 252.867188 36.316406 250.378906 35.285156 C 247.890625 34.253906 245.375 33.285156 242.839844 32.378906 C 240.304688 31.46875 237.746094 30.625 235.167969 29.84375 C 232.589844 29.0625 229.992188 28.34375 227.378906 27.6875 C 224.765625 27.035156 222.136719 26.441406 219.496094 25.917969 C 216.855469 25.390625 214.199219 24.929688 211.535156 24.535156 C 208.871094 24.140625 206.195312 23.8125 203.515625 23.546875 C 200.835938 23.28125 198.148438 23.085938 195.457031 22.953125 C 192.765625 22.820312 190.074219 22.753906 187.378906 22.753906 Z M 163.863281 93.308594 C 163.863281 92.539062 163.898438 91.769531 163.976562 91.003906 C 164.050781 90.234375 164.164062 89.476562 164.3125 88.71875 C 164.464844 87.964844 164.652344 87.21875 164.875 86.480469 C 165.097656 85.742188 165.355469 85.019531 165.652344 84.308594 C 165.945312 83.597656 166.273438 82.902344 166.636719 82.222656 C 167 81.542969 167.398438 80.882812 167.824219 80.242188 C 168.253906 79.601562 168.710938 78.984375 169.199219 78.386719 C 169.6875 77.792969 170.203125 77.222656 170.75 76.679688 C 171.292969 76.132812 171.863281 75.617188 172.460938 75.128906 C 173.054688 74.640625 173.671875 74.179688 174.3125 73.753906 C 174.953125 73.324219 175.613281 72.929688 176.292969 72.566406 C 176.972656 72.203125 177.667969 71.875 178.378906 71.582031 C 179.089844 71.285156 179.816406 71.027344 180.550781 70.800781 C 181.289062 70.578125 182.035156 70.390625 182.792969 70.242188 C 183.546875 70.089844 184.308594 69.980469 185.074219 69.902344 C 185.839844 69.828125 186.609375 69.789062 187.378906 69.789062 C 188.148438 69.789062 188.917969 69.828125 189.683594 69.902344 C 190.449219 69.980469 191.210938 70.089844 191.96875 70.242188 C 192.722656 70.390625 193.46875 70.578125 194.207031 70.800781 C 194.941406 71.027344 195.667969 71.285156 196.378906 71.582031 C 197.089844 71.875 197.785156 72.203125 198.464844 72.566406 C 199.144531 72.929688 199.804688 73.324219 200.445312 73.753906 C 201.085938 74.179688 201.703125 74.640625 202.300781 75.128906 C 202.894531 75.617188 203.464844 76.132812 204.007812 76.679688 C 204.554688 77.222656 205.070312 77.792969 205.558594 78.386719 C 206.046875 78.984375 206.503906 79.601562 206.933594 80.242188 C 207.363281 80.882812 207.757812 81.542969 208.121094 82.222656 C 208.484375 82.902344 208.8125 83.597656 209.105469 84.308594 C 209.402344 85.019531 209.660156 85.742188 209.882812 86.480469 C 210.109375 87.21875 210.296875 87.964844 210.445312 88.71875 C 210.59375 89.476562 210.707031 90.234375 210.785156 91.003906 C 210.859375 91.769531 210.898438 92.539062 210.898438 93.308594 C 210.898438 94.078125 210.859375 94.847656 210.785156 95.613281 C 210.707031 96.378906 210.59375 97.140625 210.445312 97.894531 C 210.296875 98.652344 210.109375 99.398438 209.882812 100.132812 C 209.660156 100.871094 209.402344 101.597656 209.105469 102.308594 C 208.8125 103.019531 208.484375 103.714844 208.121094 104.394531 C 207.757812 105.074219 207.363281 105.734375 206.933594 106.375 C 206.503906 107.015625 206.046875 107.632812 205.558594 108.226562 C 205.070312 108.824219 204.554688 109.394531 204.007812 109.9375 C 203.464844 110.480469 202.894531 111 202.300781 111.488281 C 201.703125 111.976562 201.085938 112.433594 200.445312 112.863281 C 199.804688 113.289062 199.144531 113.6875 198.464844 114.046875 C 197.785156 114.410156 197.089844 114.742188 196.378906 115.035156 C 195.667969 115.332031 194.941406 115.589844 194.207031 115.8125 C 193.46875 116.035156 192.722656 116.222656 191.96875 116.375 C 191.210938 116.523438 190.449219 116.636719 189.683594 116.710938 C 188.917969 116.789062 188.148438 116.824219 187.378906 116.824219 C 186.609375 116.824219 185.839844 116.789062 185.074219 116.710938 C 184.308594 116.636719 183.546875 116.523438 182.792969 116.375 C 182.035156 116.222656 181.289062 116.035156 180.550781 115.8125 C 179.816406 115.589844 179.089844 115.332031 178.378906 115.035156 C 177.667969 114.742188 176.972656 114.410156 176.292969 114.046875 C 175.613281 113.6875 174.953125 113.289062 174.3125 112.863281 C 173.671875 112.433594 173.054688 111.976562 172.460938 111.488281 C 171.863281 111 171.292969 110.480469 170.75 109.9375 C 170.203125 109.394531 169.6875 108.824219 169.199219 108.226562 C 168.710938 107.632812 168.253906 107.015625 167.824219 106.375 C 167.398438 105.734375 167 105.074219 166.636719 104.394531 C 166.273438 103.714844 165.945312 103.019531 165.652344 102.308594 C 165.355469 101.597656 165.097656 100.871094 164.875 100.132812 C 164.652344 99.398438 164.464844 98.652344 164.3125 97.894531 C 164.164062 97.140625 164.050781 96.378906 163.976562 95.613281 C 163.898438 94.847656 163.863281 94.078125 163.863281 93.308594 Z M 234.414062 293.210938 C 234.414062 293.980469 234.339844 294.746094 234.1875 295.503906 C 234.039062 296.261719 233.816406 296.996094 233.519531 297.710938 C 233.222656 298.421875 232.863281 299.101562 232.433594 299.742188 C 232.003906 300.382812 231.515625 300.976562 230.972656 301.523438 C 230.425781 302.070312 229.832031 302.558594 229.1875 302.988281 C 228.546875 303.414062 227.871094 303.777344 227.15625 304.074219 C 226.441406 304.367188 225.707031 304.59375 224.949219 304.742188 C 224.191406 304.894531 223.429688 304.96875 222.65625 304.96875 L 152.101562 304.96875 C 151.332031 304.96875 150.566406 304.894531 149.808594 304.742188 C 149.050781 304.59375 148.316406 304.367188 147.601562 304.074219 C 146.890625 303.777344 146.210938 303.414062 145.570312 302.988281 C 144.925781 302.558594 144.332031 302.070312 143.789062 301.523438 C 143.242188 300.976562 142.753906 300.382812 142.324219 299.742188 C 141.894531 299.101562 141.535156 298.421875 141.238281 297.710938 C 140.941406 296.996094 140.71875 296.261719 140.570312 295.503906 C 140.417969 294.746094 140.34375 293.980469 140.34375 293.210938 C 140.34375 292.4375 140.417969 291.671875 140.570312 290.914062 C 140.71875 290.160156 140.941406 289.421875 141.238281 288.710938 C 141.535156 287.996094 141.894531 287.320312 142.324219 286.675781 C 142.753906 286.035156 143.242188 285.441406 143.789062 284.894531 C 144.332031 284.347656 144.925781 283.863281 145.570312 283.433594 C 146.210938 283.003906 146.890625 282.640625 147.601562 282.347656 C 148.316406 282.050781 149.050781 281.828125 149.808594 281.675781 C 150.566406 281.527344 151.332031 281.449219 152.101562 281.449219 C 152.875 281.449219 153.640625 281.375 154.398438 281.226562 C 155.152344 281.074219 155.890625 280.851562 156.601562 280.554688 C 157.316406 280.261719 157.992188 279.898438 158.636719 279.46875 C 159.277344 279.039062 159.871094 278.550781 160.417969 278.007812 C 160.964844 277.460938 161.449219 276.867188 161.878906 276.226562 C 162.308594 275.582031 162.671875 274.90625 162.964844 274.191406 C 163.261719 273.476562 163.484375 272.742188 163.636719 271.984375 C 163.785156 271.230469 163.863281 270.464844 163.863281 269.691406 L 163.863281 175.621094 C 163.863281 174.847656 163.785156 174.082031 163.636719 173.328125 C 163.484375 172.570312 163.261719 171.832031 162.964844 171.121094 C 162.671875 170.40625 162.308594 169.730469 161.878906 169.085938 C 161.449219 168.445312 160.964844 167.851562 160.417969 167.304688 C 159.871094 166.757812 159.277344 166.273438 158.636719 165.84375 C 157.992188 165.414062 157.316406 165.050781 156.601562 164.757812 C 155.890625 164.460938 155.152344 164.238281 154.398438 164.085938 C 153.640625 163.9375 152.875 163.863281 152.101562 163.863281 C 151.332031 163.863281 150.566406 163.785156 149.808594 163.636719 C 149.050781 163.484375 148.316406 163.261719 147.601562 162.964844 C 146.890625 162.671875 146.210938 162.308594 145.570312 161.878906 C 144.925781 161.449219 144.332031 160.964844 143.789062 160.417969 C 143.242188 159.871094 142.753906 159.277344 142.324219 158.636719 C 141.894531 157.992188 141.535156 157.316406 141.238281 156.601562 C 140.941406 155.890625 140.71875 155.152344 140.570312 154.398438 C 140.417969 153.640625 140.34375 152.875 140.34375 152.101562 C 140.34375 151.332031 140.417969 150.566406 140.570312 149.808594 C 140.71875 149.050781 140.941406 148.316406 141.238281 147.601562 C 141.535156 146.890625 141.894531 146.210938 142.324219 145.570312 C 142.753906 144.925781 143.242188 144.332031 143.789062 143.789062 C 144.332031 143.242188 144.925781 142.753906 145.570312 142.324219 C 146.210938 141.894531 146.890625 141.535156 147.601562 141.238281 C 148.316406 140.941406 149.050781 140.71875 149.808594 140.570312 C 150.566406 140.417969 151.332031 140.34375 152.101562 140.34375 L 199.136719 140.34375 C 199.910156 140.34375 200.675781 140.417969 201.433594 140.570312 C 202.191406 140.71875 202.925781 140.941406 203.636719 141.238281 C 204.351562 141.535156 205.027344 141.894531 205.671875 142.324219 C 206.3125 142.753906 206.90625 143.242188 207.453125 143.789062 C 208 144.332031 208.488281 144.925781 208.914062 145.570312 C 209.34375 146.210938 209.707031 146.890625 210.003906 147.601562 C 210.296875 148.316406 210.519531 149.050781 210.671875 149.808594 C 210.820312 150.566406 210.898438 151.332031 210.898438 152.101562 L 210.898438 269.691406 C 210.898438 270.464844 210.972656 271.230469 211.125 271.984375 C 211.273438 272.742188 211.496094 273.476562 211.792969 274.191406 C 212.085938 274.90625 212.449219 275.582031 212.878906 276.226562 C 213.308594 276.867188 213.796875 277.460938 214.339844 278.007812 C 214.886719 278.550781 215.480469 279.039062 216.125 279.46875 C 216.765625 279.898438 217.441406 280.261719 218.15625 280.554688 C 218.871094 280.851562 219.605469 281.074219 220.363281 281.226562 C 221.121094 281.375 221.882812 281.449219 222.65625 281.449219 C 223.429688 281.449219 224.191406 281.527344 224.949219 281.675781 C 225.707031 281.828125 226.441406 282.050781 227.15625 282.347656 C 227.871094 282.640625 228.546875 283.003906 229.1875 283.433594 C 229.832031 283.863281 230.425781 284.347656 230.972656 284.894531 C 231.515625 285.441406 232.003906 286.035156 232.433594 286.675781 C 232.863281 287.320312 233.222656 287.996094 233.519531 288.710938 C 233.816406 289.421875 234.039062 290.160156 234.1875 290.914062 C 234.339844 291.671875 234.414062 292.4375 234.414062 293.210938 Z M 234.414062 293.210938 "/>
</g>
</g>
</svg>
