<?xml version="1.0" encoding="UTF-8"?>
<svg xmlns="http://www.w3.org/2000/svg" xmlns:xlink="http://www.w3.org/1999/xlink" width="375pt" height="374.999991pt" viewBox="0 0 375 374.999991" version="1.2">
	<defs>
		<clipPath id="clip1">
			<path d="M 3.351562 225 L 84 225 L 84 336 L 3.351562 336 Z M 3.351562 225 " />
		</clipPath>
	</defs>
	<g id="surface1">
		<path style=" stroke:none;fill-rule:nonzero;fill:rgb(100%,100%,100%);fill-opacity:1;" d="M 100.1875 149.511719 L 180.617188 195.589844 L 180.617188 131.632812 L 100.1875 85.3125 Z M 100.1875 149.511719 " />
		<path style=" stroke:none;fill-rule:nonzero;fill:rgb(100%,100%,100%);fill-opacity:1;" d="M 100.1875 335.136719 L 180.617188 288.816406 L 180.617188 225.046875 L 100.1875 271.386719 Z M 100.1875 335.136719 " />
		<g clip-path="url(#clip1)" clip-rule="nonzero">
			<path style=" stroke:none;fill-rule:nonzero;fill:rgb(100%,100%,100%);fill-opacity:1;" d="M 3.109375 288.816406 L 83.40625 335.136719 L 83.40625 271.386719 L 3.109375 225.046875 Z M 3.109375 288.816406 " />
		</g>
		<path style=" stroke:none;fill-rule:nonzero;fill:rgb(100%,100%,100%);fill-opacity:1;" d="M 91.957031 164.128906 L 11.65625 210.488281 L 91.957031 256.714844 L 172.257812 210.488281 Z M 91.957031 164.128906 " />
		<path style=" stroke:none;fill-rule:nonzero;fill:rgb(100%,100%,100%);fill-opacity:1;" d="M 188.941406 24.375 L 108.660156 70.753906 L 188.941406 117.09375 L 269.257812 70.753906 Z M 188.941406 80.847656 C 188.289062 80.828125 187.648438 80.742188 187.019531 80.597656 C 186.386719 80.453125 185.773438 80.25 185.179688 79.984375 C 184.585938 79.722656 184.023438 79.402344 183.496094 79.03125 C 182.964844 78.65625 182.472656 78.234375 182.023438 77.769531 C 181.574219 77.300781 181.175781 76.792969 180.828125 76.246094 C 180.476562 75.703125 180.183594 75.125 179.945312 74.523438 C 179.707031 73.921875 179.527344 73.300781 179.410156 72.664062 C 179.292969 72.027344 179.238281 71.382812 179.246094 70.734375 C 179.246094 70.085938 179.308594 69.441406 179.4375 68.800781 C 179.5625 68.164062 179.75 67.546875 180 66.945312 C 180.25 66.34375 180.554688 65.773438 180.917969 65.230469 C 181.277344 64.691406 181.691406 64.191406 182.152344 63.730469 C 182.609375 63.269531 183.113281 62.859375 183.652344 62.5 C 184.195312 62.136719 184.765625 61.832031 185.367188 61.582031 C 185.96875 61.335938 186.589844 61.148438 187.230469 61.019531 C 187.867188 60.894531 188.515625 60.828125 189.164062 60.828125 C 189.816406 60.828125 190.460938 60.894531 191.101562 61.019531 C 191.738281 61.148438 192.359375 61.335938 192.960938 61.582031 C 193.5625 61.832031 194.132812 62.136719 194.675781 62.5 C 195.21875 62.859375 195.71875 63.269531 196.179688 63.730469 C 196.640625 64.191406 197.050781 64.691406 197.414062 65.230469 C 197.773438 65.773438 198.082031 66.34375 198.328125 66.945312 C 198.578125 67.546875 198.765625 68.164062 198.894531 68.800781 C 199.023438 69.441406 199.085938 70.085938 199.085938 70.734375 C 199.085938 71.398438 199.023438 72.058594 198.894531 72.710938 C 198.765625 73.363281 198.570312 73.996094 198.316406 74.613281 C 198.0625 75.226562 197.75 75.8125 197.378906 76.363281 C 197.011719 76.917969 196.589844 77.429688 196.117188 77.898438 C 195.648438 78.367188 195.132812 78.785156 194.578125 79.15625 C 194.023438 79.523438 193.441406 79.835938 192.824219 80.089844 C 192.207031 80.339844 191.574219 80.53125 190.917969 80.660156 C 190.265625 80.789062 189.605469 80.851562 188.941406 80.847656 Z M 188.941406 80.847656 " />
		<path style=" stroke:none;fill-rule:nonzero;fill:rgb(100%,100%,100%);fill-opacity:1;" d="M 197.507812 288.816406 L 277.804688 335.136719 L 277.804688 271.386719 L 197.507812 225.046875 Z M 197.507812 288.816406 " />
		<path style=" stroke:none;fill-rule:nonzero;fill:rgb(100%,100%,100%);fill-opacity:1;" d="M 286.375 164.128906 L 206.054688 210.488281 L 286.375 256.714844 L 366.636719 210.488281 Z M 286.375 164.128906 " />
		<path style=" stroke:none;fill-rule:nonzero;fill:rgb(100%,100%,100%);fill-opacity:1;" d="M 294.921875 271.386719 L 294.921875 335.136719 L 375.203125 288.816406 L 375.203125 225.046875 Z M 294.921875 271.386719 " />
		<path style=" stroke:none;fill-rule:nonzero;fill:rgb(100%,100%,100%);fill-opacity:1;" d="M 197.507812 195.589844 L 277.804688 149.511719 L 277.804688 85.292969 L 197.507812 131.632812 Z M 197.507812 195.589844 " />
	</g>
</svg>
