<?xml version="1.0" encoding="UTF-8"?>
<svg xmlns="http://www.w3.org/2000/svg" xmlns:xlink="http://www.w3.org/1999/xlink" width="375pt" height="374.999991pt" viewBox="0 0 375 374.999991" version="1.2">
	<defs>
		<clipPath id="clip1">
			<path d="M 6.824219 6.757812 L 284 6.757812 L 284 368.257812 L 6.824219 368.257812 Z M 6.824219 6.757812 " />
		</clipPath>
		<clipPath id="clip2">
			<path d="M 169 163 L 375 163 L 375 368.257812 L 169 368.257812 Z M 169 163 " />
		</clipPath>
	</defs>
	<g id="surface1">
		<path style=" stroke:none;fill-rule:nonzero;fill:rgb(100%,100%,100%);fill-opacity:1;" d="M 280.097656 356.464844 C 280.097656 360.832031 275.792969 364.375 270.484375 364.375 L 20.371094 364.375 C 15.066406 364.375 10.75 360.832031 10.75 356.464844 L 10.75 18.5625 C 10.75 14.191406 15.066406 10.667969 20.371094 10.667969 L 270.484375 10.667969 C 275.792969 10.667969 280.097656 14.191406 280.097656 18.5625 L 280.097656 356.464844 " />
		<g clip-path="url(#clip1)" clip-rule="nonzero">
			<path style="fill:none;stroke-width:49.098;stroke-linecap:round;stroke-linejoin:round;stroke:rgb(0%,0%,0%);stroke-opacity:1;stroke-miterlimit:10;" d="M 2687.302957 1062.400977 C 2687.302957 1034.906995 2660.211006 1012.601949 2626.800878 1012.601949 L 1052.689686 1012.601949 C 1019.304142 1012.601949 992.138438 1034.906995 992.138438 1062.400977 L 992.138438 3189.692482 C 992.138438 3217.211056 1019.304142 3239.393142 1052.689686 3239.393142 L 2626.800878 3239.393142 C 2660.211006 3239.393142 2687.302957 3217.211056 2687.302957 3189.692482 Z M 2687.302957 1062.400977 " transform="matrix(0.158892,0,0,-0.158842,-146.892612,525.218294)" />
		</g>
		<path style=" stroke:none;fill-rule:nonzero;fill:rgb(100%,100%,100%);fill-opacity:1;" d="M 257.265625 113.5625 C 257.265625 118.871094 252.941406 123.175781 247.636719 123.175781 L 43.222656 123.175781 C 37.898438 123.175781 33.59375 118.871094 33.59375 113.5625 L 33.59375 50.25 C 33.59375 44.945312 37.898438 40.640625 43.222656 40.640625 L 247.636719 40.640625 C 252.941406 40.640625 257.265625 44.945312 257.265625 50.25 L 257.265625 113.5625 " />
		<path style="fill:none;stroke-width:49.098;stroke-linecap:round;stroke-linejoin:round;stroke:rgb(0%,0%,0%);stroke-opacity:1;stroke-miterlimit:10;" d="M 2543.607446 2591.612307 C 2543.607446 2558.191626 2516.392573 2531.091118 2483.007029 2531.091118 L 1196.50812 2531.091118 C 1162.999654 2531.091118 1135.907703 2558.191626 1135.907703 2591.612307 L 1135.907703 2990.201266 C 1135.907703 3023.597355 1162.999654 3050.697863 1196.50812 3050.697863 L 2483.007029 3050.697863 C 2516.392573 3050.697863 2543.607446 3023.597355 2543.607446 2990.201266 Z M 2543.607446 2591.612307 " transform="matrix(0.158892,0,0,-0.158842,-146.892612,525.218294)" />
		<path style=" stroke:none;fill-rule:nonzero;fill:rgb(100%,100%,100%);fill-opacity:1;" d="M 99.152344 189.664062 C 99.152344 194.476562 95.242188 198.402344 90.414062 198.402344 L 42.332031 198.402344 C 37.5 198.402344 33.59375 194.476562 33.59375 189.664062 L 33.59375 151.796875 C 33.59375 146.96875 37.5 143.0625 42.332031 143.0625 L 90.414062 143.0625 C 95.242188 143.0625 99.152344 146.96875 99.152344 151.796875 L 99.152344 189.664062 " />
		<path style="fill:none;stroke-width:49.098;stroke-linecap:round;stroke-linejoin:round;stroke:rgb(0%,0%,0%);stroke-opacity:1;stroke-miterlimit:10;" d="M 1548.506808 2112.508772 C 1548.506808 2082.211289 1523.897876 2057.496216 1493.511623 2057.496216 L 1190.902888 2057.496216 C 1160.49205 2057.496216 1135.907703 2082.211289 1135.907703 2112.508772 L 1135.907703 2350.90471 C 1135.907703 2381.300561 1160.49205 2405.892674 1190.902888 2405.892674 L 1493.511623 2405.892674 C 1523.897876 2405.892674 1548.506808 2381.300561 1548.506808 2350.90471 Z M 1548.506808 2112.508772 " transform="matrix(0.158892,0,0,-0.158842,-146.892612,525.218294)" />
		<path style=" stroke:none;fill-rule:nonzero;fill:rgb(100%,100%,100%);fill-opacity:1;" d="M 257.265625 189.664062 C 257.265625 194.476562 253.339844 198.402344 248.507812 198.402344 L 200.445312 198.402344 C 195.613281 198.402344 191.707031 194.476562 191.707031 189.664062 L 191.707031 151.796875 C 191.707031 146.96875 195.613281 143.0625 200.445312 143.0625 L 248.507812 143.0625 C 253.339844 143.0625 257.265625 146.96875 257.265625 151.796875 L 257.265625 189.664062 " />
		<path style="fill:none;stroke-width:49.098;stroke-linecap:round;stroke-linejoin:round;stroke:rgb(0%,0%,0%);stroke-opacity:1;stroke-miterlimit:10;" d="M 2543.607446 2112.508772 C 2543.607446 2082.211289 2518.900176 2057.496216 2488.489338 2057.496216 L 2186.003526 2057.496216 C 2155.592688 2057.496216 2131.00834 2082.211289 2131.00834 2112.508772 L 2131.00834 2350.90471 C 2131.00834 2381.300561 2155.592688 2405.892674 2186.003526 2405.892674 L 2488.489338 2405.892674 C 2518.900176 2405.892674 2543.607446 2381.300561 2543.607446 2350.90471 Z M 2543.607446 2112.508772 " transform="matrix(0.158892,0,0,-0.158842,-146.892612,525.218294)" />
		<path style=" stroke:none;fill-rule:nonzero;fill:rgb(100%,100%,100%);fill-opacity:1;" d="M 178.199219 189.664062 C 178.199219 194.476562 174.292969 198.402344 169.460938 198.402344 L 121.378906 198.402344 C 116.566406 198.402344 112.640625 194.476562 112.640625 189.664062 L 112.640625 151.796875 C 112.640625 146.96875 116.566406 143.0625 121.378906 143.0625 L 169.460938 143.0625 C 174.292969 143.0625 178.199219 146.96875 178.199219 151.796875 L 178.199219 189.664062 " />
		<path style="fill:none;stroke-width:49.098;stroke-linecap:round;stroke-linejoin:round;stroke:rgb(0%,0%,0%);stroke-opacity:1;stroke-miterlimit:10;" d="M 2045.995666 2112.508772 C 2045.995666 2082.211289 2021.411319 2057.496216 1991.000481 2057.496216 L 1688.391746 2057.496216 C 1658.10383 2057.496216 1633.396561 2082.211289 1633.396561 2112.508772 L 1633.396561 2350.90471 C 1633.396561 2381.300561 1658.10383 2405.892674 1688.391746 2405.892674 L 1991.000481 2405.892674 C 2021.411319 2405.892674 2045.995666 2381.300561 2045.995666 2350.90471 Z M 2045.995666 2112.508772 " transform="matrix(0.158892,0,0,-0.158842,-146.892612,525.218294)" />
		<path style=" stroke:none;fill-rule:nonzero;fill:rgb(100%,100%,100%);fill-opacity:1;" d="M 99.152344 260.714844 C 99.152344 265.542969 95.242188 269.453125 90.414062 269.453125 L 42.332031 269.453125 C 37.5 269.453125 33.59375 265.542969 33.59375 260.714844 L 33.59375 222.847656 C 33.59375 218.035156 37.5 214.109375 42.332031 214.109375 L 90.414062 214.109375 C 95.242188 214.109375 99.152344 218.035156 99.152344 222.847656 L 99.152344 260.714844 " />
		<path style="fill:none;stroke-width:49.098;stroke-linecap:round;stroke-linejoin:round;stroke:rgb(0%,0%,0%);stroke-opacity:1;stroke-miterlimit:10;" d="M 1548.506808 1665.202838 C 1548.506808 1634.806987 1523.897876 1610.190282 1493.511623 1610.190282 L 1190.902888 1610.190282 C 1160.49205 1610.190282 1135.907703 1634.806987 1135.907703 1665.202838 L 1135.907703 1903.598776 C 1135.907703 1933.896259 1160.49205 1958.611332 1190.902888 1958.611332 L 1493.511623 1958.611332 C 1523.897876 1958.611332 1548.506808 1933.896259 1548.506808 1903.598776 Z M 1548.506808 1665.202838 " transform="matrix(0.158892,0,0,-0.158842,-146.892612,525.218294)" />
		<path style=" stroke:none;fill-rule:nonzero;fill:rgb(100%,100%,100%);fill-opacity:1;" d="M 178.199219 260.714844 C 178.199219 265.542969 174.292969 269.453125 169.460938 269.453125 L 121.378906 269.453125 C 116.566406 269.453125 112.640625 265.542969 112.640625 260.714844 L 112.640625 222.847656 C 112.640625 218.035156 116.566406 214.109375 121.378906 214.109375 L 169.460938 214.109375 C 174.292969 214.109375 178.199219 218.035156 178.199219 222.847656 L 178.199219 260.714844 " />
		<path style="fill:none;stroke-width:49.098;stroke-linecap:round;stroke-linejoin:round;stroke:rgb(0%,0%,0%);stroke-opacity:1;stroke-miterlimit:10;" d="M 2045.995666 1665.202838 C 2045.995666 1634.806987 2021.411319 1610.190282 1991.000481 1610.190282 L 1688.391746 1610.190282 C 1658.10383 1610.190282 1633.396561 1634.806987 1633.396561 1665.202838 L 1633.396561 1903.598776 C 1633.396561 1933.896259 1658.10383 1958.611332 1688.391746 1958.611332 L 1991.000481 1958.611332 C 2021.411319 1958.611332 2045.995666 1933.896259 2045.995666 1903.598776 Z M 2045.995666 1665.202838 " transform="matrix(0.158892,0,0,-0.158842,-146.892612,525.218294)" />
		<path style=" stroke:none;fill-rule:nonzero;fill:rgb(100%,100%,100%);fill-opacity:1;" d="M 99.152344 331.765625 C 99.152344 336.59375 95.242188 340.515625 90.414062 340.515625 L 42.332031 340.515625 C 37.5 340.515625 33.59375 336.59375 33.59375 331.765625 L 33.59375 293.914062 C 33.59375 289.085938 37.5 285.175781 42.332031 285.175781 L 90.414062 285.175781 C 95.242188 285.175781 99.152344 289.085938 99.152344 293.914062 L 99.152344 331.765625 " />
		<path style="fill:none;stroke-width:49.098;stroke-linecap:round;stroke-linejoin:round;stroke:rgb(0%,0%,0%);stroke-opacity:1;stroke-miterlimit:10;" d="M 1548.506808 1217.896904 C 1548.506808 1187.501053 1523.897876 1162.810572 1493.511623 1162.810572 L 1190.902888 1162.810572 C 1160.49205 1162.810572 1135.907703 1187.501053 1135.907703 1217.896904 L 1135.907703 1456.194474 C 1135.907703 1486.590325 1160.49205 1511.20703 1190.902888 1511.20703 L 1493.511623 1511.20703 C 1523.897876 1511.20703 1548.506808 1486.590325 1548.506808 1456.194474 Z M 1548.506808 1217.896904 " transform="matrix(0.158892,0,0,-0.158842,-146.892612,525.218294)" />
		<path style=" stroke:none;fill-rule:nonzero;fill:rgb(100%,100%,100%);fill-opacity:1;" d="M 248.507812 214.109375 L 200.445312 214.109375 C 195.613281 214.109375 191.707031 218.035156 191.707031 222.847656 L 191.707031 323.902344 C 191.707031 333.066406 195.613281 340.515625 200.445312 340.515625 L 248.507812 340.515625 C 253.339844 340.515625 257.265625 333.066406 257.265625 323.902344 L 257.265625 222.847656 C 257.265625 218.035156 253.339844 214.109375 248.507812 214.109375 " />
		<path style="fill:none;stroke-width:49.098;stroke-linecap:round;stroke-linejoin:round;stroke:rgb(0%,0%,0%);stroke-opacity:1;stroke-miterlimit:10;" d="M 2488.489338 1958.611332 L 2186.003526 1958.611332 C 2155.592688 1958.611332 2131.00834 1933.896259 2131.00834 1903.598776 L 2131.00834 1267.400827 C 2131.00834 1209.707731 2155.592688 1162.810572 2186.003526 1162.810572 L 2488.489338 1162.810572 C 2518.900176 1162.810572 2543.607446 1209.707731 2543.607446 1267.400827 L 2543.607446 1903.598776 C 2543.607446 1933.896259 2518.900176 1958.611332 2488.489338 1958.611332 Z M 2488.489338 1958.611332 " transform="matrix(0.158892,0,0,-0.158842,-146.892612,525.218294)" />
		<path style=" stroke:none;fill-rule:nonzero;fill:rgb(100%,100%,100%);fill-opacity:1;" d="M 178.199219 331.765625 C 178.199219 336.59375 174.292969 340.515625 169.460938 340.515625 L 121.378906 340.515625 C 116.566406 340.515625 112.640625 336.59375 112.640625 331.765625 L 112.640625 293.914062 C 112.640625 289.085938 116.566406 285.175781 121.378906 285.175781 L 169.460938 285.175781 C 174.292969 285.175781 178.199219 289.085938 178.199219 293.914062 L 178.199219 331.765625 " />
		<path style="fill:none;stroke-width:49.098;stroke-linecap:round;stroke-linejoin:round;stroke:rgb(0%,0%,0%);stroke-opacity:1;stroke-miterlimit:10;" d="M 2045.995666 1217.896904 C 2045.995666 1187.501053 2021.411319 1162.810572 1991.000481 1162.810572 L 1688.391746 1162.810572 C 1658.10383 1162.810572 1633.396561 1187.501053 1633.396561 1217.896904 L 1633.396561 1456.194474 C 1633.396561 1486.590325 1658.10383 1511.20703 1688.391746 1511.20703 L 1991.000481 1511.20703 C 2021.411319 1511.20703 2045.995666 1486.590325 2045.995666 1456.194474 Z M 2045.995666 1217.896904 " transform="matrix(0.158892,0,0,-0.158842,-146.892612,525.218294)" />
		<path style="fill:none;stroke-width:49.098;stroke-linecap:round;stroke-linejoin:round;stroke:rgb(0%,0%,0%);stroke-opacity:1;stroke-miterlimit:10;" d="M 2131.00834 2632.607358 L 2446.302598 2632.607358 " transform="matrix(0.158892,0,0,-0.158842,-146.892612,525.218294)" />
		<path style=" stroke:none;fill-rule:nonzero;fill:rgb(100%,100%,100%);fill-opacity:1;" d="M 371.0625 265.75 C 371.0625 320.21875 326.90625 364.375 272.40625 364.375 C 217.921875 364.375 173.75 320.21875 173.75 265.75 C 173.75 211.269531 217.921875 167.109375 272.40625 167.109375 C 326.90625 167.109375 371.0625 211.269531 371.0625 265.75 " />
		<g clip-path="url(#clip2)" clip-rule="nonzero">
			<path style="fill:none;stroke-width:49.098;stroke-linecap:round;stroke-linejoin:round;stroke:rgb(0%,0%,0%);stroke-opacity:1;stroke-miterlimit:10;" d="M 3259.79866 1633.503605 C 3259.79866 1290.591189 2981.897194 1012.601949 2638.896377 1012.601949 C 2295.993897 1012.601949 2017.994094 1290.591189 2017.994094 1633.503605 C 2017.994094 1976.489798 2295.993897 2254.503629 2638.896377 2254.503629 C 2981.897194 2254.503629 3259.79866 1976.489798 3259.79866 1633.503605 Z M 3259.79866 1633.503605 " transform="matrix(0.158892,0,0,-0.158842,-146.892612,525.218294)" />
		</g>
		<path style=" stroke:none;fill-rule:nonzero;fill:rgb(100%,100%,100%);fill-opacity:1;" d="M 347.992188 265.75 C 347.992188 307.476562 314.148438 341.296875 272.40625 341.296875 C 230.664062 341.296875 196.820312 307.476562 196.820312 265.75 C 196.820312 224.023438 230.664062 190.191406 272.40625 190.191406 C 314.148438 190.191406 347.992188 224.023438 347.992188 265.75 " />
		<path style="fill:none;stroke-width:49.098;stroke-linecap:round;stroke-linejoin:round;stroke:rgb(0%,0%,0%);stroke-opacity:1;stroke-miterlimit:10;" d="M 3114.603503 1633.503605 C 3114.603503 1370.81066 2901.604715 1157.89215 2638.896377 1157.89215 C 2376.188039 1157.89215 2163.189251 1370.81066 2163.189251 1633.503605 C 2163.189251 1896.19655 2376.188039 2109.188837 2638.896377 2109.188837 C 2901.604715 2109.188837 3114.603503 1896.19655 3114.603503 1633.503605 Z M 3114.603503 1633.503605 " transform="matrix(0.158892,0,0,-0.158842,-146.892612,525.218294)" />
		<path style=" stroke:none;fill-rule:nonzero;fill:rgb(0%,0%,0%);fill-opacity:1;" d="M 286.578125 298.917969 C 284.277344 301.664062 281.242188 303.570312 277.824219 304.429688 L 277.824219 271.785156 C 284.5625 273.519531 289.789062 279.316406 290.441406 286.621094 C 290.839844 291.101562 289.457031 295.46875 286.578125 298.917969 Z M 254.308594 243.386719 C 254.308594 235.539062 259.710938 228.914062 266.988281 227.058594 L 266.988281 259.699219 C 259.710938 257.824219 254.308594 251.234375 254.308594 243.386719 Z M 301.5625 285.636719 C 300.402344 272.515625 290.3125 262.304688 277.824219 260.414062 L 277.824219 227.914062 C 283.816406 230.503906 288.011719 236.460938 288.011719 243.386719 L 299.179688 243.386719 C 299.179688 230.234375 290.074219 219.179688 277.824219 216.175781 L 277.824219 211.171875 L 266.988281 211.171875 L 266.988281 215.683594 C 253.515625 217.71875 243.140625 229.359375 243.140625 243.386719 C 243.140625 257.410156 253.515625 269.054688 266.988281 271.070312 L 266.988281 303.585938 C 265.511719 302.953125 264.113281 302.09375 262.839844 301.03125 C 259.394531 298.136719 257.265625 294.070312 256.867188 289.59375 L 245.746094 290.578125 C 246.414062 298.042969 249.941406 304.792969 255.675781 309.589844 C 259.011719 312.386719 262.875 314.324219 266.988281 315.324219 L 266.988281 320.3125 L 277.824219 320.3125 L 277.824219 315.800781 C 284.609375 314.785156 290.710938 311.386719 295.144531 306.082031 C 299.941406 300.347656 302.230469 293.085938 301.5625 285.636719 " />
	</g>
</svg>
