<?xml version="1.0" encoding="UTF-8"?>
<svg xmlns="http://www.w3.org/2000/svg" xmlns:xlink="http://www.w3.org/1999/xlink" width="375pt" height="374.999991pt" viewBox="0 0 375 374.999991" version="1.2">
<defs>
<clipPath id="clip1">
  <path d="M 59 21 L 313 21 L 313 358.121094 L 59 358.121094 Z M 59 21 "/>
</clipPath>
</defs>
<g id="surface1">
<path style=" stroke:none;fill-rule:nonzero;fill:rgb(100%,100%,100%);fill-opacity:1;" d="M 61.8125 67.898438 L 61.8125 312.164062 C 61.8125 312.164062 58.433594 355.394531 97.382812 355.394531 L 274.644531 355.394531 C 313.597656 355.394531 310.199219 312.164062 310.199219 312.164062 L 310.199219 67.898438 C 310.199219 67.898438 313.597656 24.671875 274.644531 24.671875 L 97.382812 24.671875 C 58.433594 24.671875 61.8125 67.898438 61.8125 67.898438 "/>
<g clip-path="url(#clip1)" clip-rule="nonzero">
<path style="fill:none;stroke-width:30;stroke-linecap:round;stroke-linejoin:round;stroke:rgb(1.568604%,0.779724%,0%);stroke-opacity:1;stroke-miterlimit:10;" d="M 1302.999245 2717.806011 L 1302.999245 1374.697815 C 1302.999245 1374.697815 1284.410191 1136.992666 1498.689327 1136.992666 L 2473.894714 1136.992666 C 2688.19534 1136.992666 2669.498836 1374.697815 2669.498836 1374.697815 L 2669.498836 2717.806011 C 2669.498836 2717.806011 2688.19534 2955.489682 2473.894714 2955.489682 L 1498.689327 2955.489682 C 1284.410191 2955.489682 1302.999245 2717.806011 1302.999245 2717.806011 Z M 1302.999245 2717.806011 " transform="matrix(0.181769,0,0,-0.181866,-175.03185,562.174763)"/>
</g>
<path style=" stroke:none;fill-rule:nonzero;fill:rgb(100%,100%,100%);fill-opacity:1;" d="M 132.882812 151.976562 C 132.882812 156.105469 129.539062 159.449219 125.414062 159.449219 L 99.09375 159.449219 C 94.96875 159.449219 91.621094 156.105469 91.621094 151.976562 L 91.621094 129.714844 C 91.621094 125.585938 94.96875 122.242188 99.09375 122.242188 L 125.414062 122.242188 C 129.539062 122.242188 132.882812 125.585938 132.882812 129.714844 L 132.882812 151.976562 "/>
<path style="fill:none;stroke-width:30;stroke-linecap:round;stroke-linejoin:round;stroke:rgb(1.568604%,0.779724%,0%);stroke-opacity:1;stroke-miterlimit:10;" d="M 1693.992585 2255.49774 C 1693.992585 2232.794718 1675.596944 2214.408922 1652.903255 2214.408922 L 1508.10205 2214.408922 C 1485.408362 2214.408922 1466.99123 2232.794718 1466.99123 2255.49774 L 1466.99123 2377.905045 C 1466.99123 2400.608067 1485.408362 2418.993864 1508.10205 2418.993864 L 1652.903255 2418.993864 C 1675.596944 2418.993864 1693.992585 2400.608067 1693.992585 2377.905045 Z M 1693.992585 2255.49774 " transform="matrix(0.181769,0,0,-0.181866,-175.03185,562.174763)"/>
<path style=" stroke:none;fill-rule:nonzero;fill:rgb(100%,100%,100%);fill-opacity:1;" d="M 181.796875 151.976562 C 181.796875 156.105469 178.453125 159.449219 174.328125 159.449219 L 148.007812 159.449219 C 143.882812 159.449219 140.535156 156.105469 140.535156 151.976562 L 140.535156 129.714844 C 140.535156 125.585938 143.882812 122.242188 148.007812 122.242188 L 174.328125 122.242188 C 178.453125 122.242188 181.796875 125.585938 181.796875 129.714844 L 181.796875 151.976562 "/>
<path style="fill:none;stroke-width:30;stroke-linecap:round;stroke-linejoin:round;stroke:rgb(1.568604%,0.779724%,0%);stroke-opacity:1;stroke-miterlimit:10;" d="M 1963.093312 2255.49774 C 1963.093312 2232.794718 1944.69767 2214.408922 1922.003982 2214.408922 L 1777.202776 2214.408922 C 1754.509088 2214.408922 1736.091956 2232.794718 1736.091956 2255.49774 L 1736.091956 2377.905045 C 1736.091956 2400.608067 1754.509088 2418.993864 1777.202776 2418.993864 L 1922.003982 2418.993864 C 1944.69767 2418.993864 1963.093312 2400.608067 1963.093312 2377.905045 Z M 1963.093312 2255.49774 " transform="matrix(0.181769,0,0,-0.181866,-175.03185,562.174763)"/>
<path style=" stroke:none;fill-rule:nonzero;fill:rgb(100%,100%,100%);fill-opacity:1;" d="M 231.09375 151.976562 C 231.09375 156.105469 227.765625 159.449219 223.640625 159.449219 L 197.304688 159.449219 C 193.175781 159.449219 189.832031 156.105469 189.832031 151.976562 L 189.832031 129.714844 C 189.832031 125.585938 193.175781 122.242188 197.304688 122.242188 L 223.640625 122.242188 C 227.765625 122.242188 231.09375 125.585938 231.09375 129.714844 L 231.09375 151.976562 "/>
<path style="fill:none;stroke-width:30;stroke-linecap:round;stroke-linejoin:round;stroke:rgb(1.568604%,0.779724%,0%);stroke-opacity:1;stroke-miterlimit:10;" d="M 2234.300081 2255.49774 C 2234.300081 2232.794718 2215.9904 2214.408922 2193.296712 2214.408922 L 2048.409546 2214.408922 C 2025.694367 2214.408922 2007.298726 2232.794718 2007.298726 2255.49774 L 2007.298726 2377.905045 C 2007.298726 2400.608067 2025.694367 2418.993864 2048.409546 2418.993864 L 2193.296712 2418.993864 C 2215.9904 2418.993864 2234.300081 2400.608067 2234.300081 2377.905045 Z M 2234.300081 2255.49774 " transform="matrix(0.181769,0,0,-0.181866,-175.03185,562.174763)"/>
<path style=" stroke:none;fill-rule:nonzero;fill:rgb(100%,100%,100%);fill-opacity:1;" d="M 280.40625 151.976562 C 280.40625 156.105469 277.0625 159.449219 272.9375 159.449219 L 246.617188 159.449219 C 242.492188 159.449219 239.144531 156.105469 239.144531 151.976562 L 239.144531 129.714844 C 239.144531 125.585938 242.492188 122.242188 246.617188 122.242188 L 272.9375 122.242188 C 277.0625 122.242188 280.40625 125.585938 280.40625 129.714844 L 280.40625 151.976562 "/>
<path style="fill:none;stroke-width:30;stroke-linecap:round;stroke-linejoin:round;stroke:rgb(1.568604%,0.779724%,0%);stroke-opacity:1;stroke-miterlimit:10;" d="M 2505.592811 2255.49774 C 2505.592811 2232.794718 2487.19717 2214.408922 2464.503481 2214.408922 L 2319.702276 2214.408922 C 2297.008587 2214.408922 2278.591456 2232.794718 2278.591456 2255.49774 L 2278.591456 2377.905045 C 2278.591456 2400.608067 2297.008587 2418.993864 2319.702276 2418.993864 L 2464.503481 2418.993864 C 2487.19717 2418.993864 2505.592811 2400.608067 2505.592811 2377.905045 Z M 2505.592811 2255.49774 " transform="matrix(0.181769,0,0,-0.181866,-175.03185,562.174763)"/>
<path style=" stroke:none;fill-rule:nonzero;fill:rgb(100%,100%,100%);fill-opacity:1;" d="M 132.882812 204.171875 C 132.882812 208.300781 129.539062 211.644531 125.414062 211.644531 L 99.09375 211.644531 C 94.96875 211.644531 91.621094 208.300781 91.621094 204.171875 L 91.621094 181.910156 C 91.621094 177.78125 94.96875 174.4375 99.09375 174.4375 L 125.414062 174.4375 C 129.539062 174.4375 132.882812 177.78125 132.882812 181.910156 L 132.882812 204.171875 "/>
<path style="fill:none;stroke-width:30;stroke-linecap:round;stroke-linejoin:round;stroke:rgb(1.568604%,0.779724%,0%);stroke-opacity:1;stroke-miterlimit:10;" d="M 1693.992585 1968.498896 C 1693.992585 1945.795874 1675.596944 1927.410078 1652.903255 1927.410078 L 1508.10205 1927.410078 C 1485.408362 1927.410078 1466.99123 1945.795874 1466.99123 1968.498896 L 1466.99123 2090.906201 C 1466.99123 2113.609223 1485.408362 2131.99502 1508.10205 2131.99502 L 1652.903255 2131.99502 C 1675.596944 2131.99502 1693.992585 2113.609223 1693.992585 2090.906201 Z M 1693.992585 1968.498896 " transform="matrix(0.181769,0,0,-0.181866,-175.03185,562.174763)"/>
<path style=" stroke:none;fill-rule:nonzero;fill:rgb(100%,100%,100%);fill-opacity:1;" d="M 181.796875 204.171875 C 181.796875 208.300781 178.453125 211.644531 174.328125 211.644531 L 148.007812 211.644531 C 143.882812 211.644531 140.535156 208.300781 140.535156 204.171875 L 140.535156 181.910156 C 140.535156 177.78125 143.882812 174.4375 148.007812 174.4375 L 174.328125 174.4375 C 178.453125 174.4375 181.796875 177.78125 181.796875 181.910156 L 181.796875 204.171875 "/>
<path style="fill:none;stroke-width:30;stroke-linecap:round;stroke-linejoin:round;stroke:rgb(1.568604%,0.779724%,0%);stroke-opacity:1;stroke-miterlimit:10;" d="M 1963.093312 1968.498896 C 1963.093312 1945.795874 1944.69767 1927.410078 1922.003982 1927.410078 L 1777.202776 1927.410078 C 1754.509088 1927.410078 1736.091956 1945.795874 1736.091956 1968.498896 L 1736.091956 2090.906201 C 1736.091956 2113.609223 1754.509088 2131.99502 1777.202776 2131.99502 L 1922.003982 2131.99502 C 1944.69767 2131.99502 1963.093312 2113.609223 1963.093312 2090.906201 Z M 1963.093312 1968.498896 " transform="matrix(0.181769,0,0,-0.181866,-175.03185,562.174763)"/>
<path style=" stroke:none;fill-rule:nonzero;fill:rgb(100%,100%,100%);fill-opacity:1;" d="M 231.09375 204.171875 C 231.09375 208.300781 227.765625 211.644531 223.640625 211.644531 L 197.304688 211.644531 C 193.175781 211.644531 189.832031 208.300781 189.832031 204.171875 L 189.832031 181.910156 C 189.832031 177.78125 193.175781 174.4375 197.304688 174.4375 L 223.640625 174.4375 C 227.765625 174.4375 231.09375 177.78125 231.09375 181.910156 L 231.09375 204.171875 "/>
<path style="fill:none;stroke-width:30;stroke-linecap:round;stroke-linejoin:round;stroke:rgb(1.568604%,0.779724%,0%);stroke-opacity:1;stroke-miterlimit:10;" d="M 2234.300081 1968.498896 C 2234.300081 1945.795874 2215.9904 1927.410078 2193.296712 1927.410078 L 2048.409546 1927.410078 C 2025.694367 1927.410078 2007.298726 1945.795874 2007.298726 1968.498896 L 2007.298726 2090.906201 C 2007.298726 2113.609223 2025.694367 2131.99502 2048.409546 2131.99502 L 2193.296712 2131.99502 C 2215.9904 2131.99502 2234.300081 2113.609223 2234.300081 2090.906201 Z M 2234.300081 1968.498896 " transform="matrix(0.181769,0,0,-0.181866,-175.03185,562.174763)"/>
<path style=" stroke:none;fill-rule:nonzero;fill:rgb(100%,100%,100%);fill-opacity:1;" d="M 280.40625 204.171875 C 280.40625 208.300781 277.0625 211.644531 272.9375 211.644531 L 246.617188 211.644531 C 242.492188 211.644531 239.144531 208.300781 239.144531 204.171875 L 239.144531 181.910156 C 239.144531 177.78125 242.492188 174.4375 246.617188 174.4375 L 272.9375 174.4375 C 277.0625 174.4375 280.40625 177.78125 280.40625 181.910156 L 280.40625 204.171875 "/>
<path style="fill:none;stroke-width:30;stroke-linecap:round;stroke-linejoin:round;stroke:rgb(1.568604%,0.779724%,0%);stroke-opacity:1;stroke-miterlimit:10;" d="M 2505.592811 1968.498896 C 2505.592811 1945.795874 2487.19717 1927.410078 2464.503481 1927.410078 L 2319.702276 1927.410078 C 2297.008587 1927.410078 2278.591456 1945.795874 2278.591456 1968.498896 L 2278.591456 2090.906201 C 2278.591456 2113.609223 2297.008587 2131.99502 2319.702276 2131.99502 L 2464.503481 2131.99502 C 2487.19717 2131.99502 2505.592811 2113.609223 2505.592811 2090.906201 Z M 2505.592811 1968.498896 " transform="matrix(0.181769,0,0,-0.181866,-175.03185,562.174763)"/>
<path style=" stroke:none;fill-rule:nonzero;fill:rgb(100%,100%,100%);fill-opacity:1;" d="M 132.882812 254.894531 C 132.882812 259.023438 129.539062 262.367188 125.414062 262.367188 L 99.09375 262.367188 C 94.96875 262.367188 91.621094 259.023438 91.621094 254.894531 L 91.621094 232.632812 C 91.621094 228.503906 94.96875 225.160156 99.09375 225.160156 L 125.414062 225.160156 C 129.539062 225.160156 132.882812 228.503906 132.882812 232.632812 L 132.882812 254.894531 "/>
<path style="fill:none;stroke-width:30;stroke-linecap:round;stroke-linejoin:round;stroke:rgb(1.568604%,0.779724%,0%);stroke-opacity:1;stroke-miterlimit:10;" d="M 1693.992585 1689.597535 C 1693.992585 1666.894513 1675.596944 1648.508717 1652.903255 1648.508717 L 1508.10205 1648.508717 C 1485.408362 1648.508717 1466.99123 1666.894513 1466.99123 1689.597535 L 1466.99123 1812.00484 C 1466.99123 1834.707862 1485.408362 1853.093658 1508.10205 1853.093658 L 1652.903255 1853.093658 C 1675.596944 1853.093658 1693.992585 1834.707862 1693.992585 1812.00484 Z M 1693.992585 1689.597535 " transform="matrix(0.181769,0,0,-0.181866,-175.03185,562.174763)"/>
<path style=" stroke:none;fill-rule:nonzero;fill:rgb(100%,100%,100%);fill-opacity:1;" d="M 181.796875 254.894531 C 181.796875 259.023438 178.453125 262.367188 174.328125 262.367188 L 148.007812 262.367188 C 143.882812 262.367188 140.535156 259.023438 140.535156 254.894531 L 140.535156 232.632812 C 140.535156 228.503906 143.882812 225.160156 148.007812 225.160156 L 174.328125 225.160156 C 178.453125 225.160156 181.796875 228.503906 181.796875 232.632812 L 181.796875 254.894531 "/>
<path style="fill:none;stroke-width:30;stroke-linecap:round;stroke-linejoin:round;stroke:rgb(1.568604%,0.779724%,0%);stroke-opacity:1;stroke-miterlimit:10;" d="M 1963.093312 1689.597535 C 1963.093312 1666.894513 1944.69767 1648.508717 1922.003982 1648.508717 L 1777.202776 1648.508717 C 1754.509088 1648.508717 1736.091956 1666.894513 1736.091956 1689.597535 L 1736.091956 1812.00484 C 1736.091956 1834.707862 1754.509088 1853.093658 1777.202776 1853.093658 L 1922.003982 1853.093658 C 1944.69767 1853.093658 1963.093312 1834.707862 1963.093312 1812.00484 Z M 1963.093312 1689.597535 " transform="matrix(0.181769,0,0,-0.181866,-175.03185,562.174763)"/>
<path style=" stroke:none;fill-rule:nonzero;fill:rgb(100%,100%,100%);fill-opacity:1;" d="M 231.09375 254.894531 C 231.09375 259.023438 227.765625 262.367188 223.640625 262.367188 L 197.304688 262.367188 C 193.175781 262.367188 189.832031 259.023438 189.832031 254.894531 L 189.832031 232.632812 C 189.832031 228.503906 193.175781 225.160156 197.304688 225.160156 L 223.640625 225.160156 C 227.765625 225.160156 231.09375 228.503906 231.09375 232.632812 L 231.09375 254.894531 "/>
<path style="fill:none;stroke-width:30;stroke-linecap:round;stroke-linejoin:round;stroke:rgb(1.568604%,0.779724%,0%);stroke-opacity:1;stroke-miterlimit:10;" d="M 2234.300081 1689.597535 C 2234.300081 1666.894513 2215.9904 1648.508717 2193.296712 1648.508717 L 2048.409546 1648.508717 C 2025.694367 1648.508717 2007.298726 1666.894513 2007.298726 1689.597535 L 2007.298726 1812.00484 C 2007.298726 1834.707862 2025.694367 1853.093658 2048.409546 1853.093658 L 2193.296712 1853.093658 C 2215.9904 1853.093658 2234.300081 1834.707862 2234.300081 1812.00484 Z M 2234.300081 1689.597535 " transform="matrix(0.181769,0,0,-0.181866,-175.03185,562.174763)"/>
<path style=" stroke:none;fill-rule:nonzero;fill:rgb(100%,100%,100%);fill-opacity:1;" d="M 280.40625 254.894531 C 280.40625 259.023438 277.0625 262.367188 272.9375 262.367188 L 246.617188 262.367188 C 242.492188 262.367188 239.144531 259.023438 239.144531 254.894531 L 239.144531 232.632812 C 239.144531 228.503906 242.492188 225.160156 246.617188 225.160156 L 272.9375 225.160156 C 277.0625 225.160156 280.40625 228.503906 280.40625 232.632812 L 280.40625 254.894531 "/>
<path style="fill:none;stroke-width:30;stroke-linecap:round;stroke-linejoin:round;stroke:rgb(1.568604%,0.779724%,0%);stroke-opacity:1;stroke-miterlimit:10;" d="M 2505.592811 1689.597535 C 2505.592811 1666.894513 2487.19717 1648.508717 2464.503481 1648.508717 L 2319.702276 1648.508717 C 2297.008587 1648.508717 2278.591456 1666.894513 2278.591456 1689.597535 L 2278.591456 1812.00484 C 2278.591456 1834.707862 2297.008587 1853.093658 2319.702276 1853.093658 L 2464.503481 1853.093658 C 2487.19717 1853.093658 2505.592811 1834.707862 2505.592811 1812.00484 Z M 2505.592811 1689.597535 " transform="matrix(0.181769,0,0,-0.181866,-175.03185,562.174763)"/>
<path style=" stroke:none;fill-rule:nonzero;fill:rgb(100%,100%,100%);fill-opacity:1;" d="M 132.882812 305.980469 C 132.882812 310.109375 129.539062 313.453125 125.414062 313.453125 L 99.09375 313.453125 C 94.96875 313.453125 91.621094 310.109375 91.621094 305.980469 L 91.621094 283.71875 C 91.621094 279.589844 94.96875 276.246094 99.09375 276.246094 L 125.414062 276.246094 C 129.539062 276.246094 132.882812 279.589844 132.882812 283.71875 L 132.882812 305.980469 "/>
<path style="fill:none;stroke-width:30;stroke-linecap:round;stroke-linejoin:round;stroke:rgb(1.568604%,0.779724%,0%);stroke-opacity:1;stroke-miterlimit:10;" d="M 1693.992585 1408.698651 C 1693.992585 1385.995629 1675.596944 1367.609833 1652.903255 1367.609833 L 1508.10205 1367.609833 C 1485.408362 1367.609833 1466.99123 1385.995629 1466.99123 1408.698651 L 1466.99123 1531.105957 C 1466.99123 1553.808978 1485.408362 1572.194775 1508.10205 1572.194775 L 1652.903255 1572.194775 C 1675.596944 1572.194775 1693.992585 1553.808978 1693.992585 1531.105957 Z M 1693.992585 1408.698651 " transform="matrix(0.181769,0,0,-0.181866,-175.03185,562.174763)"/>
<path style=" stroke:none;fill-rule:nonzero;fill:rgb(100%,100%,100%);fill-opacity:1;" d="M 181.796875 305.980469 C 181.796875 310.109375 178.453125 313.453125 174.328125 313.453125 L 148.007812 313.453125 C 143.882812 313.453125 140.535156 310.109375 140.535156 305.980469 L 140.535156 283.71875 C 140.535156 279.589844 143.882812 276.246094 148.007812 276.246094 L 174.328125 276.246094 C 178.453125 276.246094 181.796875 279.589844 181.796875 283.71875 L 181.796875 305.980469 "/>
<path style="fill:none;stroke-width:30;stroke-linecap:round;stroke-linejoin:round;stroke:rgb(1.568604%,0.779724%,0%);stroke-opacity:1;stroke-miterlimit:10;" d="M 1963.093312 1408.698651 C 1963.093312 1385.995629 1944.69767 1367.609833 1922.003982 1367.609833 L 1777.202776 1367.609833 C 1754.509088 1367.609833 1736.091956 1385.995629 1736.091956 1408.698651 L 1736.091956 1531.105957 C 1736.091956 1553.808978 1754.509088 1572.194775 1777.202776 1572.194775 L 1922.003982 1572.194775 C 1944.69767 1572.194775 1963.093312 1553.808978 1963.093312 1531.105957 Z M 1963.093312 1408.698651 " transform="matrix(0.181769,0,0,-0.181866,-175.03185,562.174763)"/>
<path style=" stroke:none;fill-rule:nonzero;fill:rgb(100%,100%,100%);fill-opacity:1;" d="M 231.09375 305.980469 C 231.09375 310.109375 227.765625 313.453125 223.640625 313.453125 L 197.304688 313.453125 C 193.175781 313.453125 189.832031 310.109375 189.832031 305.980469 L 189.832031 283.71875 C 189.832031 279.589844 193.175781 276.246094 197.304688 276.246094 L 223.640625 276.246094 C 227.765625 276.246094 231.09375 279.589844 231.09375 283.71875 L 231.09375 305.980469 "/>
<path style="fill:none;stroke-width:30;stroke-linecap:round;stroke-linejoin:round;stroke:rgb(1.568604%,0.779724%,0%);stroke-opacity:1;stroke-miterlimit:10;" d="M 2234.300081 1408.698651 C 2234.300081 1385.995629 2215.9904 1367.609833 2193.296712 1367.609833 L 2048.409546 1367.609833 C 2025.694367 1367.609833 2007.298726 1385.995629 2007.298726 1408.698651 L 2007.298726 1531.105957 C 2007.298726 1553.808978 2025.694367 1572.194775 2048.409546 1572.194775 L 2193.296712 1572.194775 C 2215.9904 1572.194775 2234.300081 1553.808978 2234.300081 1531.105957 Z M 2234.300081 1408.698651 " transform="matrix(0.181769,0,0,-0.181866,-175.03185,562.174763)"/>
<path style=" stroke:none;fill-rule:nonzero;fill:rgb(100%,100%,100%);fill-opacity:1;" d="M 280.40625 305.980469 C 280.40625 310.109375 277.0625 313.453125 272.9375 313.453125 L 246.617188 313.453125 C 242.492188 313.453125 239.144531 310.109375 239.144531 305.980469 L 239.144531 283.71875 C 239.144531 279.589844 242.492188 276.246094 246.617188 276.246094 L 272.9375 276.246094 C 277.0625 276.246094 280.40625 279.589844 280.40625 283.71875 L 280.40625 305.980469 "/>
<path style="fill:none;stroke-width:30;stroke-linecap:round;stroke-linejoin:round;stroke:rgb(1.568604%,0.779724%,0%);stroke-opacity:1;stroke-miterlimit:10;" d="M 2505.592811 1408.698651 C 2505.592811 1385.995629 2487.19717 1367.609833 2464.503481 1367.609833 L 2319.702276 1367.609833 C 2297.008587 1367.609833 2278.591456 1385.995629 2278.591456 1408.698651 L 2278.591456 1531.105957 C 2278.591456 1553.808978 2297.008587 1572.194775 2319.702276 1572.194775 L 2464.503481 1572.194775 C 2487.19717 1572.194775 2505.592811 1553.808978 2505.592811 1531.105957 Z M 2505.592811 1408.698651 " transform="matrix(0.181769,0,0,-0.181866,-175.03185,562.174763)"/>
<path style=" stroke:none;fill-rule:nonzero;fill:rgb(100%,100%,100%);fill-opacity:1;" d="M 280.40625 91.886719 C 280.40625 98.945312 274.15625 104.671875 266.464844 104.671875 L 105.5625 104.671875 C 97.875 104.671875 91.621094 98.945312 91.621094 91.886719 L 91.621094 64.953125 C 91.621094 57.878906 97.875 52.167969 105.5625 52.167969 L 266.464844 52.167969 C 274.15625 52.167969 280.40625 57.878906 280.40625 64.953125 L 280.40625 91.886719 "/>
<path style="fill:none;stroke-width:30;stroke-linecap:round;stroke-linejoin:round;stroke:rgb(1.568604%,0.779724%,0%);stroke-opacity:1;stroke-miterlimit:10;" d="M 2505.592811 2585.905106 C 2505.592811 2547.093033 2471.208435 2515.605209 2428.894161 2515.605209 L 1543.68988 2515.605209 C 1501.397097 2515.605209 1466.99123 2547.093033 1466.99123 2585.905106 L 1466.99123 2734.000977 C 1466.99123 2772.898964 1501.397097 2804.300873 1543.68988 2804.300873 L 2428.894161 2804.300873 C 2471.208435 2804.300873 2505.592811 2772.898964 2505.592811 2734.000977 Z M 2505.592811 2585.905106 " transform="matrix(0.181769,0,0,-0.181866,-175.03185,562.174763)"/>
</g>
</svg>
