<?xml version="1.0" encoding="UTF-8"?>
<svg xmlns="http://www.w3.org/2000/svg" xmlns:xlink="http://www.w3.org/1999/xlink" width="375pt" height="374.999991pt" viewBox="0 0 375 374.999991" version="1.2">
<defs>
<clipPath id="clip1">
  <path d="M 17.898438 4.886719 L 356.898438 4.886719 L 356.898438 370.136719 L 17.898438 370.136719 Z M 17.898438 4.886719 "/>
</clipPath>
</defs>
<g id="surface1">
<g clip-path="url(#clip1)" clip-rule="nonzero">
<path style=" stroke:none;fill-rule:nonzero;fill:rgb(100%,100%,100%);fill-opacity:1;" d="M 343.414062 66.664062 L 272.445312 4.886719 L 253.960938 23.382812 L 298.648438 62.28125 C 286.785156 68.988281 278.652344 81.589844 278.652344 96.199219 C 278.652344 117.773438 296.195312 135.332031 317.757812 135.332031 C 322.347656 135.332031 326.703125 134.394531 330.796875 132.933594 L 330.796875 239.691406 C 330.796875 254.089844 319.113281 265.777344 304.722656 265.777344 C 290.332031 265.777344 278.652344 254.089844 278.652344 239.691406 L 278.652344 200.554688 C 278.652344 178.980469 261.105469 161.421875 239.542969 161.421875 L 226.507812 161.421875 L 226.507812 57.066406 C 226.507812 42.664062 214.824219 30.976562 200.433594 30.976562 L 70.070312 30.976562 C 55.679688 30.976562 44 42.664062 44 57.066406 L 44 317.957031 C 44 332.359375 32.320312 344.046875 17.925781 344.046875 L 17.925781 370.136719 L 252.578125 370.136719 L 252.578125 344.046875 C 238.1875 344.046875 226.507812 332.359375 226.507812 317.957031 L 226.507812 187.511719 L 239.542969 187.511719 C 246.710938 187.511719 252.578125 193.382812 252.578125 200.554688 L 252.578125 239.691406 C 252.578125 268.464844 275.964844 291.867188 304.722656 291.867188 C 333.480469 291.867188 356.867188 268.464844 356.867188 239.691406 L 356.867188 96.199219 C 356.867188 84.875 351.964844 74.101562 343.414062 66.664062 Z M 70.070312 83.152344 L 200.433594 83.152344 L 200.433594 161.421875 L 70.070312 161.421875 Z M 317.757812 109.242188 C 310.589844 109.242188 304.722656 103.398438 304.722656 96.199219 C 304.722656 89 310.589844 83.152344 317.757812 83.152344 C 321.746094 83.152344 324.5625 84.851562 326.257812 86.3125 L 326.3125 86.363281 C 329.179688 88.839844 330.796875 92.414062 330.796875 96.199219 C 330.796875 103.398438 324.929688 109.242188 317.757812 109.242188 Z M 317.757812 109.242188 "/>
</g>
</g>
</svg>
