<?xml version="1.0" encoding="UTF-8"?>
<svg xmlns="http://www.w3.org/2000/svg" xmlns:xlink="http://www.w3.org/1999/xlink" width="375pt" height="262.499992pt" viewBox="0 0 375 262.499992" version="1.2">
<defs>
<clipPath id="clip1">
  <path d="M 0.355469 252 L 374.640625 252 L 374.640625 260.503906 L 0.355469 260.503906 Z M 0.355469 252 "/>
</clipPath>
<clipPath id="clip2">
  <path d="M 0.355469 0 L 374.640625 0 L 374.640625 56 L 0.355469 56 Z M 0.355469 0 "/>
</clipPath>
<clipPath id="clip3">
  <path d="M 0.355469 25 L 374.640625 25 L 374.640625 32 L 0.355469 32 Z M 0.355469 25 "/>
</clipPath>
</defs>
<g id="surface1">
<g clip-path="url(#clip1)" clip-rule="nonzero">
<path style=" stroke:none;fill-rule:nonzero;fill:rgb(72.938538%,73.329163%,73.728943%);fill-opacity:1;" d="M 374.707031 260.621094 L 0.398438 260.621094 L 0.398438 252.359375 L 374.707031 252.359375 L 374.707031 260.621094 "/>
</g>
<g clip-path="url(#clip2)" clip-rule="nonzero">
<path style=" stroke:none;fill-rule:nonzero;fill:rgb(92.158508%,11.369324%,15.289307%);fill-opacity:1;" d="M 374.707031 44.886719 C 374.707031 50.820312 369.914062 55.625 364.003906 55.625 L 11.109375 55.625 C 5.195312 55.625 0.398438 50.820312 0.398438 44.886719 L 0.398438 10.882812 C 0.398438 4.957031 5.195312 0.148438 11.109375 0.148438 L 364.003906 0.148438 C 369.914062 0.148438 374.707031 4.957031 374.707031 10.882812 L 374.707031 44.886719 "/>
</g>
<path style=" stroke:none;fill-rule:nonzero;fill:rgb(92.158508%,11.369324%,15.289307%);fill-opacity:1;" d="M 47.832031 253.375 L 37.71875 253.375 L 37.71875 55.625 L 47.832031 55.625 L 47.832031 253.375 "/>
<path style=" stroke:none;fill-rule:nonzero;fill:rgb(63.919067%,64.709473%,65.489197%);fill-opacity:1;" d="M 91.675781 162.703125 L 58.390625 162.703125 L 58.390625 137.054688 L 91.675781 137.054688 Z M 91.675781 128.105469 L 47.832031 128.105469 L 47.832031 253.375 L 98.984375 253.375 L 98.984375 128.105469 L 91.675781 128.105469 "/>
<path style=" stroke:none;fill-rule:nonzero;fill:rgb(97.24884%,65.098572%,17.248535%);fill-opacity:1;" d="M 59.726562 103.644531 L 24.039062 103.644531 L 24.039062 83.363281 L 59.726562 83.363281 L 59.726562 103.644531 "/>
<path style=" stroke:none;fill-rule:nonzero;fill:rgb(47.839355%,48.629761%,50.588989%);fill-opacity:1;" d="M 98.984375 253.375 L 47.832031 253.375 L 47.832031 162.703125 L 98.984375 162.703125 L 98.984375 253.375 "/>
<path style=" stroke:none;fill-rule:nonzero;fill:rgb(97.24884%,96.469116%,48.629761%);fill-opacity:1;" d="M 93.335938 178.660156 L 78.761719 178.660156 L 78.761719 173.140625 L 93.335938 173.140625 L 93.335938 178.660156 "/>
<path style=" stroke:none;fill-rule:nonzero;fill:rgb(97.24884%,96.469116%,48.629761%);fill-opacity:1;" d="M 93.335938 188.203125 L 78.761719 188.203125 L 78.761719 182.691406 L 93.335938 182.691406 L 93.335938 188.203125 "/>
<path style=" stroke:none;fill-rule:nonzero;fill:rgb(97.24884%,96.469116%,48.629761%);fill-opacity:1;" d="M 70.433594 178.660156 L 55.859375 178.660156 L 55.859375 173.140625 L 70.433594 173.140625 L 70.433594 178.660156 "/>
<path style=" stroke:none;fill-rule:nonzero;fill:rgb(97.24884%,96.469116%,48.629761%);fill-opacity:1;" d="M 70.433594 188.203125 L 55.859375 188.203125 L 55.859375 182.691406 L 70.433594 182.691406 L 70.433594 188.203125 "/>
<path style=" stroke:none;fill-rule:nonzero;fill:rgb(12.939453%,10.978699%,11.369324%);fill-opacity:1;" d="M 67.757812 211.917969 L 58.539062 211.917969 L 58.539062 195.808594 L 67.757812 195.808594 L 67.757812 211.917969 "/>
<path style=" stroke:none;fill-rule:nonzero;fill:rgb(92.158508%,11.369324%,15.289307%);fill-opacity:1;" d="M 67.757812 216.6875 L 59.726562 216.6875 L 59.726562 200.582031 L 67.757812 200.582031 L 67.757812 216.6875 "/>
<path style=" stroke:none;fill-rule:nonzero;fill:rgb(12.939453%,10.978699%,11.369324%);fill-opacity:1;" d="M 90.621094 211.917969 L 81.402344 211.917969 L 81.402344 195.808594 L 90.621094 195.808594 L 90.621094 211.917969 "/>
<path style=" stroke:none;fill-rule:nonzero;fill:rgb(97.24884%,65.098572%,17.248535%);fill-opacity:1;" d="M 90.621094 216.6875 L 82.59375 216.6875 L 82.59375 200.582031 L 90.621094 200.582031 L 90.621094 216.6875 "/>
<path style=" stroke:none;fill-rule:nonzero;fill:rgb(12.939453%,10.978699%,11.369324%);fill-opacity:1;" d="M 65.902344 240.808594 L 61.441406 240.808594 L 61.441406 216.6875 L 65.902344 216.6875 L 65.902344 240.808594 "/>
<path style=" stroke:none;fill-rule:nonzero;fill:rgb(12.939453%,10.978699%,11.369324%);fill-opacity:1;" d="M 65.902344 244.277344 L 65.902344 240.808594 L 61.441406 240.808594 C 61.441406 240.808594 61.886719 248.863281 51.066406 249.648438 C 40.25 250.429688 27.050781 249.648438 37.71875 205.914062 L 37.71875 203.226562 C 37.71875 203.226562 26.945312 225.683594 32.332031 240.808594 C 37.125 254.285156 46.085938 252.390625 51.625 252.105469 C 55.976562 251.882812 66.230469 250.261719 65.902344 244.277344 "/>
<path style=" stroke:none;fill-rule:nonzero;fill:rgb(12.939453%,10.978699%,11.369324%);fill-opacity:1;" d="M 88.988281 236.445312 L 84.636719 236.445312 L 84.636719 216.6875 L 88.988281 216.6875 L 88.988281 236.445312 "/>
<path style=" stroke:none;fill-rule:nonzero;fill:rgb(12.939453%,10.978699%,11.369324%);fill-opacity:1;" d="M 84.636719 236.445312 C 84.636719 236.445312 84.113281 251.769531 90.621094 255.238281 C 97.128906 258.707031 110.734375 258.480469 110.734375 242.042969 C 110.734375 225.597656 105.75 200.507812 98.984375 200.582031 L 98.984375 203.863281 C 98.984375 203.863281 107.386719 215.085938 107.386719 242.152344 C 107.386719 242.152344 107.203125 254.417969 98.984375 253.375 C 90.769531 252.332031 88.988281 248.53125 88.988281 236.445312 L 86.8125 233.539062 L 84.636719 236.445312 "/>
<path style=" stroke:none;fill-rule:nonzero;fill:rgb(92.158508%,11.369324%,15.289307%);fill-opacity:1;" d="M 179.878906 253.375 L 169.769531 253.375 L 169.769531 55.625 L 179.878906 55.625 L 179.878906 253.375 "/>
<path style=" stroke:none;fill-rule:nonzero;fill:rgb(63.919067%,64.709473%,65.489197%);fill-opacity:1;" d="M 223.726562 162.703125 L 190.4375 162.703125 L 190.4375 137.054688 L 223.726562 137.054688 Z M 223.726562 128.105469 L 179.878906 128.105469 L 179.878906 253.375 L 231.035156 253.375 L 231.035156 128.105469 L 223.726562 128.105469 "/>
<path style=" stroke:none;fill-rule:nonzero;fill:rgb(97.24884%,65.098572%,17.248535%);fill-opacity:1;" d="M 191.78125 103.644531 L 156.089844 103.644531 L 156.089844 83.363281 L 191.78125 83.363281 L 191.78125 103.644531 "/>
<path style=" stroke:none;fill-rule:nonzero;fill:rgb(47.839355%,48.629761%,50.588989%);fill-opacity:1;" d="M 231.035156 253.375 L 179.878906 253.375 L 179.878906 162.703125 L 231.035156 162.703125 L 231.035156 253.375 "/>
<path style=" stroke:none;fill-rule:nonzero;fill:rgb(97.24884%,96.469116%,48.629761%);fill-opacity:1;" d="M 225.382812 178.660156 L 210.8125 178.660156 L 210.8125 173.140625 L 225.382812 173.140625 L 225.382812 178.660156 "/>
<path style=" stroke:none;fill-rule:nonzero;fill:rgb(97.24884%,96.469116%,48.629761%);fill-opacity:1;" d="M 225.382812 188.203125 L 210.8125 188.203125 L 210.8125 182.691406 L 225.382812 182.691406 L 225.382812 188.203125 "/>
<path style=" stroke:none;fill-rule:nonzero;fill:rgb(97.24884%,96.469116%,48.629761%);fill-opacity:1;" d="M 202.484375 178.660156 L 187.910156 178.660156 L 187.910156 173.140625 L 202.484375 173.140625 L 202.484375 178.660156 "/>
<path style=" stroke:none;fill-rule:nonzero;fill:rgb(97.24884%,96.469116%,48.629761%);fill-opacity:1;" d="M 202.484375 188.203125 L 187.910156 188.203125 L 187.910156 182.691406 L 202.484375 182.691406 L 202.484375 188.203125 "/>
<path style=" stroke:none;fill-rule:nonzero;fill:rgb(12.939453%,10.978699%,11.369324%);fill-opacity:1;" d="M 199.808594 211.917969 L 190.589844 211.917969 L 190.589844 195.808594 L 199.808594 195.808594 L 199.808594 211.917969 "/>
<path style=" stroke:none;fill-rule:nonzero;fill:rgb(92.158508%,11.369324%,15.289307%);fill-opacity:1;" d="M 199.808594 216.6875 L 191.78125 216.6875 L 191.78125 200.582031 L 199.808594 200.582031 L 199.808594 216.6875 "/>
<path style=" stroke:none;fill-rule:nonzero;fill:rgb(12.939453%,10.978699%,11.369324%);fill-opacity:1;" d="M 222.667969 211.917969 L 213.449219 211.917969 L 213.449219 195.808594 L 222.667969 195.808594 L 222.667969 211.917969 "/>
<path style=" stroke:none;fill-rule:nonzero;fill:rgb(97.24884%,65.098572%,17.248535%);fill-opacity:1;" d="M 222.667969 216.6875 L 214.640625 216.6875 L 214.640625 200.582031 L 222.667969 200.582031 L 222.667969 216.6875 "/>
<path style=" stroke:none;fill-rule:nonzero;fill:rgb(12.939453%,10.978699%,11.369324%);fill-opacity:1;" d="M 197.949219 240.808594 L 193.488281 240.808594 L 193.488281 216.6875 L 197.949219 216.6875 L 197.949219 240.808594 "/>
<path style=" stroke:none;fill-rule:nonzero;fill:rgb(12.939453%,10.978699%,11.369324%);fill-opacity:1;" d="M 197.949219 244.277344 L 197.949219 240.808594 L 193.488281 240.808594 C 193.488281 240.808594 193.933594 248.863281 183.117188 249.648438 C 172.296875 250.429688 159.097656 249.648438 169.769531 205.914062 L 169.769531 203.226562 C 169.769531 203.226562 158.996094 225.683594 164.378906 240.808594 C 169.171875 254.285156 178.136719 252.390625 183.671875 252.105469 C 188.023438 251.882812 198.28125 250.261719 197.949219 244.277344 "/>
<path style=" stroke:none;fill-rule:nonzero;fill:rgb(12.939453%,10.978699%,11.369324%);fill-opacity:1;" d="M 221.035156 236.445312 L 216.6875 236.445312 L 216.6875 216.6875 L 221.035156 216.6875 L 221.035156 236.445312 "/>
<path style=" stroke:none;fill-rule:nonzero;fill:rgb(12.939453%,10.978699%,11.369324%);fill-opacity:1;" d="M 216.6875 236.445312 C 216.6875 236.445312 216.164062 251.769531 222.667969 255.238281 C 229.175781 258.707031 242.785156 258.480469 242.785156 242.042969 C 242.785156 225.597656 237.800781 200.507812 231.035156 200.582031 L 231.035156 203.863281 C 231.035156 203.863281 239.4375 215.085938 239.4375 242.152344 C 239.4375 242.152344 239.25 254.417969 231.035156 253.375 C 222.816406 252.332031 221.035156 248.53125 221.035156 236.445312 L 218.859375 233.539062 L 216.6875 236.445312 "/>
<path style=" stroke:none;fill-rule:nonzero;fill:rgb(92.158508%,11.369324%,15.289307%);fill-opacity:1;" d="M 292.894531 253.375 L 282.78125 253.375 L 282.78125 55.625 L 292.894531 55.625 L 292.894531 253.375 "/>
<path style=" stroke:none;fill-rule:nonzero;fill:rgb(63.919067%,64.709473%,65.489197%);fill-opacity:1;" d="M 336.738281 162.703125 L 303.453125 162.703125 L 303.453125 137.054688 L 336.738281 137.054688 Z M 336.738281 128.105469 L 292.894531 128.105469 L 292.894531 253.375 L 344.046875 253.375 L 344.046875 128.105469 L 336.738281 128.105469 "/>
<path style=" stroke:none;fill-rule:nonzero;fill:rgb(97.24884%,65.098572%,17.248535%);fill-opacity:1;" d="M 304.792969 103.644531 L 269.101562 103.644531 L 269.101562 83.363281 L 304.792969 83.363281 L 304.792969 103.644531 "/>
<path style=" stroke:none;fill-rule:nonzero;fill:rgb(47.839355%,48.629761%,50.588989%);fill-opacity:1;" d="M 344.046875 253.375 L 292.894531 253.375 L 292.894531 162.703125 L 344.046875 162.703125 L 344.046875 253.375 "/>
<path style=" stroke:none;fill-rule:nonzero;fill:rgb(97.24884%,96.469116%,48.629761%);fill-opacity:1;" d="M 338.402344 178.660156 L 323.828125 178.660156 L 323.828125 173.140625 L 338.402344 173.140625 L 338.402344 178.660156 "/>
<path style=" stroke:none;fill-rule:nonzero;fill:rgb(97.24884%,96.469116%,48.629761%);fill-opacity:1;" d="M 338.402344 188.203125 L 323.828125 188.203125 L 323.828125 182.691406 L 338.402344 182.691406 L 338.402344 188.203125 "/>
<path style=" stroke:none;fill-rule:nonzero;fill:rgb(97.24884%,96.469116%,48.629761%);fill-opacity:1;" d="M 315.496094 178.660156 L 300.929688 178.660156 L 300.929688 173.140625 L 315.496094 173.140625 L 315.496094 178.660156 "/>
<path style=" stroke:none;fill-rule:nonzero;fill:rgb(97.24884%,96.469116%,48.629761%);fill-opacity:1;" d="M 315.496094 188.203125 L 300.929688 188.203125 L 300.929688 182.691406 L 315.496094 182.691406 L 315.496094 188.203125 "/>
<path style=" stroke:none;fill-rule:nonzero;fill:rgb(12.939453%,10.978699%,11.369324%);fill-opacity:1;" d="M 312.820312 211.917969 L 303.601562 211.917969 L 303.601562 195.808594 L 312.820312 195.808594 L 312.820312 211.917969 "/>
<path style=" stroke:none;fill-rule:nonzero;fill:rgb(92.158508%,11.369324%,15.289307%);fill-opacity:1;" d="M 312.820312 216.6875 L 304.792969 216.6875 L 304.792969 200.582031 L 312.820312 200.582031 L 312.820312 216.6875 "/>
<path style=" stroke:none;fill-rule:nonzero;fill:rgb(12.939453%,10.978699%,11.369324%);fill-opacity:1;" d="M 335.683594 211.917969 L 326.464844 211.917969 L 326.464844 195.808594 L 335.683594 195.808594 L 335.683594 211.917969 "/>
<path style=" stroke:none;fill-rule:nonzero;fill:rgb(97.24884%,65.098572%,17.248535%);fill-opacity:1;" d="M 335.683594 216.6875 L 327.65625 216.6875 L 327.65625 200.582031 L 335.683594 200.582031 L 335.683594 216.6875 "/>
<path style=" stroke:none;fill-rule:nonzero;fill:rgb(12.939453%,10.978699%,11.369324%);fill-opacity:1;" d="M 310.964844 240.808594 L 306.503906 240.808594 L 306.503906 216.6875 L 310.964844 216.6875 L 310.964844 240.808594 "/>
<path style=" stroke:none;fill-rule:nonzero;fill:rgb(12.939453%,10.978699%,11.369324%);fill-opacity:1;" d="M 310.964844 244.277344 L 310.964844 240.808594 L 306.503906 240.808594 C 306.503906 240.808594 306.949219 248.863281 296.128906 249.648438 C 285.3125 250.429688 272.113281 249.648438 282.78125 205.914062 L 282.78125 203.226562 C 282.78125 203.226562 272.007812 225.683594 277.394531 240.808594 C 282.1875 254.285156 291.148438 252.390625 296.6875 252.105469 C 301.039062 251.882812 311.300781 250.261719 310.964844 244.277344 "/>
<path style=" stroke:none;fill-rule:nonzero;fill:rgb(12.939453%,10.978699%,11.369324%);fill-opacity:1;" d="M 334.050781 236.445312 L 329.699219 236.445312 L 329.699219 216.6875 L 334.050781 216.6875 L 334.050781 236.445312 "/>
<path style=" stroke:none;fill-rule:nonzero;fill:rgb(12.939453%,10.978699%,11.369324%);fill-opacity:1;" d="M 329.699219 236.445312 C 329.699219 236.445312 329.179688 251.769531 335.683594 255.238281 C 342.191406 258.707031 355.796875 258.480469 355.796875 242.042969 C 355.796875 225.597656 350.8125 200.507812 344.046875 200.582031 L 344.046875 203.863281 C 344.046875 203.863281 352.449219 215.085938 352.449219 242.152344 C 352.449219 242.152344 352.265625 254.417969 344.046875 253.375 C 335.832031 252.332031 334.050781 248.53125 334.050781 236.445312 L 331.871094 233.539062 L 329.699219 236.445312 "/>
<g clip-path="url(#clip3)" clip-rule="nonzero">
<path style=" stroke:none;fill-rule:nonzero;fill:rgb(100%,100%,100%);fill-opacity:1;" d="M 0.398438 25.367188 L 374.707031 25.367188 L 374.707031 31.894531 L 0.398438 31.894531 L 0.398438 25.367188 "/>
</g>
</g>
</svg>
