<?xml version="1.0" encoding="UTF-8"?>
<svg xmlns="http://www.w3.org/2000/svg" xmlns:xlink="http://www.w3.org/1999/xlink" width="375pt" height="374.999991pt" viewBox="0 0 375 374.999991" version="1.2">
	<defs>
		<clipPath id="clip1">
			<path d="M 6.339844 6.339844 L 103 6.339844 L 103 116 L 6.339844 116 Z M 6.339844 6.339844 " />
		</clipPath>
		<clipPath id="clip2">
			<path d="M 284 42 L 368.589844 42 L 368.589844 128 L 284 128 Z M 284 42 " />
		</clipPath>
		<clipPath id="clip3">
			<path d="M 6.339844 296 L 79 296 L 79 368.589844 L 6.339844 368.589844 Z M 6.339844 296 " />
		</clipPath>
	</defs>
	<g id="surface1">
		<g clip-path="url(#clip1)" clip-rule="nonzero">
			<path style=" stroke:none;fill-rule:nonzero;fill:rgb(100%,100%,100%);fill-opacity:1;" d="M 9.382812 90.066406 L 51.59375 114.1875 C 51.601562 114.1875 51.601562 114.191406 51.605469 114.199219 C 51.613281 114.199219 51.621094 114.203125 51.625 114.203125 L 51.644531 114.214844 C 51.867188 114.34375 52.109375 114.402344 52.335938 114.5 C 52.589844 114.601562 52.832031 114.742188 53.09375 114.808594 C 53.597656 114.945312 54.117188 115.011719 54.636719 115.011719 C 55.15625 115.011719 55.675781 114.945312 56.183594 114.8125 C 56.441406 114.746094 56.691406 114.609375 56.9375 114.503906 C 57.167969 114.410156 57.410156 114.347656 57.632812 114.222656 L 57.652344 114.210938 C 57.65625 114.210938 57.664062 114.203125 57.667969 114.203125 C 57.675781 114.203125 57.675781 114.199219 57.679688 114.191406 L 99.894531 90.070312 C 101.777344 88.992188 102.9375 86.988281 102.9375 84.824219 L 102.9375 36.527344 C 102.9375 35.988281 102.867188 35.457031 102.726562 34.949219 C 102.683594 34.785156 102.585938 34.636719 102.535156 34.480469 C 102.414062 34.148438 102.304688 33.816406 102.128906 33.507812 C 102.015625 33.3125 101.851562 33.152344 101.71875 32.96875 C 101.542969 32.734375 101.386719 32.480469 101.179688 32.269531 C 101.046875 32.136719 100.875 32.039062 100.726562 31.917969 C 100.476562 31.707031 100.234375 31.476562 99.9375 31.308594 C 99.929688 31.304688 99.917969 31.304688 99.914062 31.296875 C 99.90625 31.296875 99.90625 31.289062 99.90625 31.289062 L 57.644531 7.140625 C 55.785156 6.078125 53.507812 6.078125 51.65625 7.140625 L 9.394531 31.289062 C 9.386719 31.289062 9.386719 31.296875 9.386719 31.296875 C 9.363281 31.296875 9.351562 31.296875 9.34375 31.304688 C 9.054688 31.472656 8.808594 31.703125 8.554688 31.914062 C 8.410156 32.035156 8.234375 32.128906 8.101562 32.261719 C 7.890625 32.472656 7.738281 32.726562 7.5625 32.964844 C 7.425781 33.152344 7.261719 33.308594 7.148438 33.507812 C 6.972656 33.808594 6.863281 34.148438 6.742188 34.480469 C 6.683594 34.640625 6.589844 34.785156 6.550781 34.949219 C 6.410156 35.457031 6.339844 35.988281 6.339844 36.527344 L 6.339844 84.824219 C 6.339844 86.988281 7.496094 88.992188 9.382812 90.066406 Z M 18.414062 46.933594 L 48.601562 64.175781 L 48.601562 98.566406 L 18.414062 81.324219 Z M 90.863281 81.324219 L 60.675781 98.566406 L 60.675781 64.175781 L 90.863281 46.933594 Z M 54.636719 19.324219 L 84.734375 36.527344 L 54.636719 53.71875 L 24.542969 36.527344 Z M 54.636719 19.324219 " />
		</g>
		<path style=" stroke:none;fill-rule:nonzero;fill:rgb(100%,100%,100%);fill-opacity:1;" d="M 48.601562 30.488281 L 60.675781 30.488281 L 60.675781 42.5625 L 48.601562 42.5625 Z M 48.601562 30.488281 " />
		<path style=" stroke:none;fill-rule:nonzero;fill:rgb(100%,100%,100%);fill-opacity:1;" d="M 187.464844 108.976562 C 105.679688 108.976562 40.789062 180.394531 38.066406 183.4375 C 36.011719 185.730469 36.011719 189.195312 38.066406 191.488281 C 40.789062 194.53125 105.679688 265.949219 187.464844 265.949219 C 269.246094 265.949219 334.136719 194.53125 336.859375 191.488281 C 338.914062 189.195312 338.914062 185.730469 336.859375 183.4375 C 334.136719 180.394531 269.246094 108.976562 187.464844 108.976562 Z M 157.898438 225.570312 C 164.574219 230.765625 172.628906 234.242188 181.425781 235.347656 L 181.425781 253.574219 C 167.640625 252.324219 155.066406 246.867188 144.996094 238.472656 Z M 193.5 235.347656 C 202.296875 234.242188 210.355469 230.765625 217.027344 225.570312 L 229.925781 238.46875 C 219.859375 246.867188 207.277344 252.316406 193.496094 253.566406 L 193.496094 235.347656 Z M 187.464844 223.6875 C 167.484375 223.6875 151.238281 207.441406 151.238281 187.464844 C 151.238281 167.484375 167.484375 151.238281 187.464844 151.238281 C 207.441406 151.238281 223.6875 167.484375 223.6875 187.464844 C 223.6875 207.441406 207.441406 223.6875 187.464844 223.6875 Z M 181.425781 139.578125 C 172.628906 140.683594 164.570312 144.160156 157.898438 149.355469 L 145 136.457031 C 155.066406 128.058594 167.648438 122.609375 181.429688 121.359375 L 181.429688 139.578125 Z M 217.027344 149.355469 C 210.351562 144.160156 202.296875 140.683594 193.5 139.578125 L 193.5 121.351562 C 207.285156 122.601562 219.859375 128.058594 229.929688 136.453125 Z M 136.457031 144.996094 L 149.355469 157.890625 C 144.160156 164.570312 140.683594 172.621094 139.578125 181.425781 L 121.351562 181.425781 C 122.609375 167.640625 128.058594 155.058594 136.457031 144.996094 Z M 139.578125 193.5 C 140.683594 202.304688 144.160156 210.355469 149.355469 217.035156 L 136.457031 229.929688 C 128.058594 219.867188 122.601562 207.285156 121.351562 193.5 Z M 238.46875 229.929688 L 225.570312 217.035156 C 230.765625 210.355469 234.242188 202.304688 235.347656 193.5 L 253.574219 193.5 C 252.316406 207.285156 246.867188 219.867188 238.46875 229.929688 Z M 235.347656 181.425781 C 234.242188 172.621094 230.765625 164.570312 225.570312 157.890625 L 238.46875 144.996094 C 246.867188 155.058594 252.324219 167.640625 253.574219 181.425781 Z M 131.15625 132.90625 C 117.457031 147.042969 108.976562 166.269531 108.976562 187.464844 C 108.976562 208.65625 117.457031 227.882812 131.15625 242.019531 C 91.617188 225.902344 61.308594 197.871094 50.9375 187.464844 C 61.308594 177.054688 91.617188 149.023438 131.15625 132.90625 Z M 243.769531 242.019531 C 257.46875 227.882812 265.949219 208.65625 265.949219 187.464844 C 265.949219 166.269531 257.46875 147.042969 243.769531 132.90625 C 283.308594 149.027344 313.617188 177.054688 323.988281 187.464844 C 313.617188 197.871094 283.308594 225.902344 243.769531 242.019531 Z M 243.769531 242.019531 " />
		<path style=" stroke:none;fill-rule:nonzero;fill:rgb(100%,100%,100%);fill-opacity:1;" d="M 151.871094 105.636719 L 162.671875 100.234375 L 144.558594 64.007812 C 143.539062 61.96875 141.453125 60.675781 139.164062 60.675781 L 115.011719 60.675781 L 115.011719 72.75 L 135.433594 72.75 Z M 151.871094 105.636719 " />
		<g clip-path="url(#clip2)" clip-rule="nonzero">
			<path style=" stroke:none;fill-rule:nonzero;fill:rgb(100%,100%,100%);fill-opacity:1;" d="M 326.324219 42.5625 C 303.019531 42.5625 284.0625 61.527344 284.0625 84.824219 C 284.0625 108.125 303.019531 127.089844 326.324219 127.089844 C 349.628906 127.089844 368.589844 108.125 368.589844 84.824219 C 368.589844 61.527344 349.628906 42.5625 326.324219 42.5625 Z M 326.324219 54.636719 C 332.464844 54.636719 338.171875 56.503906 342.945312 59.667969 L 323.824219 78.789062 L 296.746094 78.789062 C 299.554688 65.027344 311.75 54.636719 326.324219 54.636719 Z M 296.746094 90.863281 L 322.910156 90.863281 L 336.300781 113.183594 C 333.160156 114.292969 329.839844 115.011719 326.324219 115.011719 C 311.75 115.011719 299.554688 104.621094 296.746094 90.863281 Z M 346.660156 106.984375 L 333.925781 85.761719 L 351.484375 68.203125 C 354.648438 72.980469 356.511719 78.683594 356.511719 84.824219 C 356.511719 93.609375 352.671875 101.464844 346.660156 106.984375 Z M 346.660156 106.984375 " />
		</g>
		<path style=" stroke:none;fill-rule:nonzero;fill:rgb(100%,100%,100%);fill-opacity:1;" d="M 249.511719 90.863281 L 271.988281 90.863281 L 271.988281 78.789062 L 247.839844 78.789062 C 246.746094 78.789062 245.671875 79.082031 244.730469 79.652344 L 214.542969 97.765625 L 220.753906 108.117188 Z M 249.511719 90.863281 " />
		<g clip-path="url(#clip3)" clip-rule="nonzero">
			<path style=" stroke:none;fill-rule:nonzero;fill:rgb(100%,100%,100%);fill-opacity:1;" d="M 72.75 296.136719 L 12.375 296.136719 C 9.042969 296.136719 6.339844 298.835938 6.339844 302.175781 L 6.339844 362.550781 C 6.339844 365.890625 9.042969 368.589844 12.375 368.589844 L 72.75 368.589844 C 76.082031 368.589844 78.789062 365.890625 78.789062 362.550781 L 78.789062 302.175781 C 78.789062 298.835938 76.082031 296.136719 72.75 296.136719 Z M 66.714844 356.511719 L 18.414062 356.511719 L 18.414062 308.214844 L 66.714844 308.214844 Z M 66.714844 356.511719 " />
		</g>
		<path style=" stroke:none;fill-rule:nonzero;fill:rgb(100%,100%,100%);fill-opacity:1;" d="M 141.96875 314.25 L 90.863281 314.25 L 90.863281 326.324219 L 145.199219 326.324219 C 147.21875 326.324219 149.101562 325.316406 150.222656 323.640625 L 174.375 287.414062 L 164.328125 280.71875 Z M 141.96875 314.25 " />
		<path style=" stroke:none;fill-rule:nonzero;fill:rgb(100%,100%,100%);fill-opacity:1;" d="M 90.863281 338.402344 L 102.9375 338.402344 L 102.9375 350.476562 L 90.863281 350.476562 Z M 90.863281 338.402344 " />
		<path style=" stroke:none;fill-rule:nonzero;fill:rgb(100%,100%,100%);fill-opacity:1;" d="M 115.011719 338.402344 L 127.089844 338.402344 L 127.089844 350.476562 L 115.011719 350.476562 Z M 115.011719 338.402344 " />
		<path style=" stroke:none;fill-rule:nonzero;fill:rgb(100%,100%,100%);fill-opacity:1;" d="M 139.164062 338.402344 L 151.238281 338.402344 L 151.238281 350.476562 L 139.164062 350.476562 Z M 139.164062 338.402344 " />
	</g>
</svg>
